;TYPE=PLATED
;Layer: PTH_Through_Via
;EasyEDA Pro v3.2.91, 2026-03-13 23:13:29
;Gerber Generator version 0.3
M48
METRIC,LZ,0000.00000
;Hole size 1 = 0.30500 METRIC
T01C0.30500
%
G05
G90
T01
X3.57739Y-11.33198
X16.70587Y-11.33198
X27.71684Y-11.58598
X43.47081Y-11.58598
X41.94682Y-11.58598
X41.94682Y-14.37997
X58.46278Y-11.33198
X69.21976Y-11.33198
X82.34824Y-11.33198
X51.5001Y-13.72897
X29.40214Y-13.47497
X35.34013Y-11.95098
X57.18408Y-11.69698
X45.75411Y-10.68098
X18.09796Y-11.6365
X50.5861Y-8.14098
X13.50217Y-12.96697
X46.16611Y-16.01497
X44.64211Y-14.49097
X55.72949Y-11.61338
X57.76148Y-10.08938
X36.35613Y-15.50697
X48.0401Y-17.03097
X38.03812Y-16.26897
X39.05412Y-22.87295
X42.19812Y-18.04696
X39.91212Y-20.33296
X45.63011Y-12.45898
X18.70616Y-19.57096
X36.60413Y-18.30096
X39.90612Y-22.87295
X35.84813Y-10.17298
X70.05986Y-11.82398
X52.0141Y-3.56899
X54.04609Y-2.045
X61.15808Y-1.537
X55.22699Y-20.24386
X81.45604Y-26.05415
X82.47204Y-24.78415
X43.86741Y-19.91996
X38.67012Y-13.98297
X39.94012Y-13.98297
X39.94012Y-9.84088
X78.16705Y-13.14287
X41.94682Y-3.13839
X57.70078Y-4.15439
X47.07201Y-5.27969
X52.406Y-5.38307
X24.32585Y-6.84329
X46.16981Y-7.35129
X67.69576Y-2.88439
X14.73017Y-6.10899
X46.48011Y-6.61699
X45.10231Y-5.45719
X42.81632Y-5.45719
X30.25414Y-8.39498
X27.20615Y-7.63298
X71.42626Y-5.93239
X42.03972Y-6.10899
M30