G04 Layer: TopSilkscreenLayer*
G04 EasyEDA Pro v3.2.91, 2026-03-13 23:13:29*
G04 Gerber Generator version 0.3*
G04 Scale: 100 percent, Rotated: No, Reflected: No*
G04 Dimensions in millimeters*
G04 Leading zeros omitted, absolute positions, 4 integers and 5 decimals*
G04 Generated by one-click*
%FSLAX45Y45*%
%MOMM*%
%ADD10C,0.1524*%
%ADD11C,0.254*%
%ADD12C,0.2*%
%ADD13C,0.3*%
%ADD14C,0.6610*%
G75*


G04 PolygonModel Start*
G54D10*
G01X6045020Y-42296D02*
G01X5896521Y-42296D01*
G01X5896521Y-260817D02*
G01X6045020Y-260817D01*
G01X6060260Y-245577D02*
G01X6060260Y-57536D01*
G01X5562780Y-42296D02*
G01X5711279Y-42296D01*
G01X5711279Y-260817D02*
G01X5562780Y-260817D01*
G01X5547540Y-245577D02*
G01X5547540Y-57536D01*
G01X6045020Y-260817D02*
G03X6060260Y-245577I0J15240D01*
G01X6060260Y-57536D02*
G03X6045020Y-42296I-15240J0D01*
G01X5562780Y-260817D02*
G02X5547540Y-245577I0J15240D01*
G01X5547540Y-57536D02*
G02X5562780Y-42296I15240J0D01*
G01X6629220Y-42296D02*
G01X6480721Y-42296D01*
G01X6480721Y-260817D02*
G01X6629220Y-260817D01*
G01X6644460Y-245577D02*
G01X6644460Y-57536D01*
G01X6146980Y-42296D02*
G01X6295479Y-42296D01*
G01X6295479Y-260817D02*
G01X6146980Y-260817D01*
G01X6131740Y-245577D02*
G01X6131740Y-57536D01*
G01X6629220Y-260817D02*
G03X6644460Y-245577I0J15240D01*
G01X6644460Y-57536D02*
G03X6629220Y-42296I-15240J0D01*
G01X6146980Y-260817D02*
G02X6131740Y-245577I0J15240D01*
G01X6131740Y-57536D02*
G02X6146980Y-42296I15240J0D01*
G54D11*
G01X5392997Y-47376D02*
G01X3107003Y-47376D01*
G01X3107003Y-47376D02*
G01X3107003Y-297375D01*
G01X3361003Y-47376D02*
G01X3361003Y-297375D01*
G01X3107003Y-297375D02*
G01X5392997Y-297375D01*
G01X5392997Y-297375D02*
G01X5392997Y-47376D01*
G54D10*
G01X216336Y-923692D02*
G01X80344Y-923692D01*
G01X80344Y-923692D02*
G01X80344Y-1139511D01*
G01X80344Y-1139511D02*
G01X216336Y-1139511D01*
G01X406577Y-923692D02*
G01X542568Y-923692D01*
G01X542568Y-923692D02*
G01X542568Y-1139511D01*
G01X542568Y-1139511D02*
G01X406577Y-1139511D01*
G01X406577Y-1422193D02*
G01X542568Y-1422193D01*
G01X542568Y-1422193D02*
G01X542568Y-1206374D01*
G01X542568Y-1206374D02*
G01X406577Y-1206374D01*
G01X216336Y-1422193D02*
G01X80344Y-1422193D01*
G01X80344Y-1422193D02*
G01X80344Y-1206374D01*
G01X80344Y-1206374D02*
G01X216336Y-1206374D01*
G01X1529184Y-923692D02*
G01X1393192Y-923692D01*
G01X1393192Y-923692D02*
G01X1393192Y-1139511D01*
G01X1393192Y-1139511D02*
G01X1529184Y-1139511D01*
G01X1719425Y-923692D02*
G01X1855416Y-923692D01*
G01X1855416Y-923692D02*
G01X1855416Y-1139511D01*
G01X1855416Y-1139511D02*
G01X1719425Y-1139511D01*
G01X1719425Y-1422193D02*
G01X1855416Y-1422193D01*
G01X1855416Y-1422193D02*
G01X1855416Y-1206374D01*
G01X1855416Y-1206374D02*
G01X1719425Y-1206374D01*
G01X1529184Y-1422193D02*
G01X1393192Y-1422193D01*
G01X1393192Y-1422193D02*
G01X1393192Y-1206374D01*
G01X1393192Y-1206374D02*
G01X1529184Y-1206374D01*
G01X2604879Y-923692D02*
G01X2468888Y-923692D01*
G01X2468888Y-923692D02*
G01X2468888Y-1139511D01*
G01X2468888Y-1139511D02*
G01X2604879Y-1139511D01*
G01X2795120Y-923692D02*
G01X2931112Y-923692D01*
G01X2931112Y-923692D02*
G01X2931112Y-1139511D01*
G01X2931112Y-1139511D02*
G01X2795120Y-1139511D01*
G01X2795120Y-1422193D02*
G01X2931112Y-1422193D01*
G01X2931112Y-1422193D02*
G01X2931112Y-1206374D01*
G01X2931112Y-1206374D02*
G01X2795120Y-1206374D01*
G01X2604879Y-1422193D02*
G01X2468888Y-1422193D01*
G01X2468888Y-1422193D02*
G01X2468888Y-1206374D01*
G01X2468888Y-1206374D02*
G01X2604879Y-1206374D01*
G01X4154879Y-923692D02*
G01X4018888Y-923692D01*
G01X4018888Y-923692D02*
G01X4018888Y-1139511D01*
G01X4018888Y-1139511D02*
G01X4154879Y-1139511D01*
G01X4345120Y-923692D02*
G01X4481112Y-923692D01*
G01X4481112Y-923692D02*
G01X4481112Y-1139511D01*
G01X4481112Y-1139511D02*
G01X4345120Y-1139511D01*
G01X4345120Y-1422193D02*
G01X4481112Y-1422193D01*
G01X4481112Y-1422193D02*
G01X4481112Y-1206374D01*
G01X4481112Y-1206374D02*
G01X4345120Y-1206374D01*
G01X4154879Y-1422193D02*
G01X4018888Y-1422193D01*
G01X4018888Y-1422193D02*
G01X4018888Y-1206374D01*
G01X4018888Y-1206374D02*
G01X4154879Y-1206374D01*
G01X5704880Y-923692D02*
G01X5568888Y-923692D01*
G01X5568888Y-923692D02*
G01X5568888Y-1139511D01*
G01X5568888Y-1139511D02*
G01X5704880Y-1139511D01*
G01X5895121Y-923692D02*
G01X6031112Y-923692D01*
G01X6031112Y-923692D02*
G01X6031112Y-1139511D01*
G01X6031112Y-1139511D02*
G01X5895121Y-1139511D01*
G01X5895121Y-1422193D02*
G01X6031112Y-1422193D01*
G01X6031112Y-1422193D02*
G01X6031112Y-1206374D01*
G01X6031112Y-1206374D02*
G01X5895121Y-1206374D01*
G01X5704880Y-1422193D02*
G01X5568888Y-1422193D01*
G01X5568888Y-1422193D02*
G01X5568888Y-1206374D01*
G01X5568888Y-1206374D02*
G01X5704880Y-1206374D01*
G01X6780575Y-923692D02*
G01X6644584Y-923692D01*
G01X6644584Y-923692D02*
G01X6644584Y-1139511D01*
G01X6644584Y-1139511D02*
G01X6780575Y-1139511D01*
G01X6970816Y-923692D02*
G01X7106808Y-923692D01*
G01X7106808Y-923692D02*
G01X7106808Y-1139511D01*
G01X7106808Y-1139511D02*
G01X6970816Y-1139511D01*
G01X6970816Y-1422193D02*
G01X7106808Y-1422193D01*
G01X7106808Y-1422193D02*
G01X7106808Y-1206374D01*
G01X7106808Y-1206374D02*
G01X6970816Y-1206374D01*
G01X6780575Y-1422193D02*
G01X6644584Y-1422193D01*
G01X6644584Y-1422193D02*
G01X6644584Y-1206374D01*
G01X6644584Y-1206374D02*
G01X6780575Y-1206374D01*
G01X8093423Y-923692D02*
G01X7957432Y-923692D01*
G01X7957432Y-923692D02*
G01X7957432Y-1139511D01*
G01X7957432Y-1139511D02*
G01X8093423Y-1139511D01*
G01X8283664Y-923692D02*
G01X8419656Y-923692D01*
G01X8419656Y-923692D02*
G01X8419656Y-1139511D01*
G01X8419656Y-1139511D02*
G01X8283664Y-1139511D01*
G01X222380Y-641010D02*
G01X86388Y-641010D01*
G01X86388Y-641010D02*
G01X86388Y-856829D01*
G01X86388Y-856829D02*
G01X222380Y-856829D01*
G01X412620Y-641010D02*
G01X548612Y-641010D01*
G01X548612Y-641010D02*
G01X548612Y-856829D01*
G01X548612Y-856829D02*
G01X412620Y-856829D01*
G01X412620Y-574147D02*
G01X548612Y-574147D01*
G01X548612Y-574147D02*
G01X548612Y-358328D01*
G01X548612Y-358328D02*
G01X412620Y-358328D01*
G01X222380Y-574147D02*
G01X86388Y-574147D01*
G01X86388Y-574147D02*
G01X86388Y-358328D01*
G01X86388Y-358328D02*
G01X222380Y-358328D01*
G01X1503784Y-641010D02*
G01X1367792Y-641010D01*
G01X1367792Y-641010D02*
G01X1367792Y-856829D01*
G01X1367792Y-856829D02*
G01X1503784Y-856829D01*
G01X1694025Y-641010D02*
G01X1830016Y-641010D01*
G01X1830016Y-641010D02*
G01X1830016Y-856829D01*
G01X1830016Y-856829D02*
G01X1694025Y-856829D01*
G01X1694025Y-574147D02*
G01X1830016Y-574147D01*
G01X1830016Y-574147D02*
G01X1830016Y-358328D01*
G01X1830016Y-358328D02*
G01X1694025Y-358328D01*
G01X1503784Y-574147D02*
G01X1367792Y-574147D01*
G01X1367792Y-574147D02*
G01X1367792Y-358328D01*
G01X1367792Y-358328D02*
G01X1503784Y-358328D01*
G01X2604879Y-641010D02*
G01X2468888Y-641010D01*
G01X2468888Y-641010D02*
G01X2468888Y-856829D01*
G01X2468888Y-856829D02*
G01X2604879Y-856829D01*
G01X2795120Y-641010D02*
G01X2931112Y-641010D01*
G01X2931112Y-641010D02*
G01X2931112Y-856829D01*
G01X2931112Y-856829D02*
G01X2795120Y-856829D01*
G01X2795120Y-574147D02*
G01X2931112Y-574147D01*
G01X2931112Y-574147D02*
G01X2931112Y-358328D01*
G01X2931112Y-358328D02*
G01X2795120Y-358328D01*
G01X2604879Y-574147D02*
G01X2468888Y-574147D01*
G01X2468888Y-574147D02*
G01X2468888Y-358328D01*
G01X2468888Y-358328D02*
G01X2604879Y-358328D01*
G01X4154879Y-641010D02*
G01X4018888Y-641010D01*
G01X4018888Y-641010D02*
G01X4018888Y-856829D01*
G01X4018888Y-856829D02*
G01X4154879Y-856829D01*
G01X4345120Y-641010D02*
G01X4481112Y-641010D01*
G01X4481112Y-641010D02*
G01X4481112Y-856829D01*
G01X4481112Y-856829D02*
G01X4345120Y-856829D01*
G01X4345120Y-574147D02*
G01X4481112Y-574147D01*
G01X4481112Y-574147D02*
G01X4481112Y-358328D01*
G01X4481112Y-358328D02*
G01X4345120Y-358328D01*
G01X4154879Y-574147D02*
G01X4018888Y-574147D01*
G01X4018888Y-574147D02*
G01X4018888Y-358328D01*
G01X4018888Y-358328D02*
G01X4154879Y-358328D01*
G01X5704880Y-641010D02*
G01X5568888Y-641010D01*
G01X5568888Y-641010D02*
G01X5568888Y-856829D01*
G01X5568888Y-856829D02*
G01X5704880Y-856829D01*
G01X5895121Y-641010D02*
G01X6031112Y-641010D01*
G01X6031112Y-641010D02*
G01X6031112Y-856829D01*
G01X6031112Y-856829D02*
G01X5895121Y-856829D01*
G01X5895121Y-574147D02*
G01X6031112Y-574147D01*
G01X6031112Y-574147D02*
G01X6031112Y-358328D01*
G01X6031112Y-358328D02*
G01X5895121Y-358328D01*
G01X5704880Y-574147D02*
G01X5568888Y-574147D01*
G01X5568888Y-574147D02*
G01X5568888Y-358328D01*
G01X5568888Y-358328D02*
G01X5704880Y-358328D01*
G01X6780575Y-641010D02*
G01X6644584Y-641010D01*
G01X6644584Y-641010D02*
G01X6644584Y-856829D01*
G01X6644584Y-856829D02*
G01X6780575Y-856829D01*
G01X6970816Y-641010D02*
G01X7106808Y-641010D01*
G01X7106808Y-641010D02*
G01X7106808Y-856829D01*
G01X7106808Y-856829D02*
G01X6970816Y-856829D01*
G01X6970816Y-574147D02*
G01X7106808Y-574147D01*
G01X7106808Y-574147D02*
G01X7106808Y-358328D01*
G01X7106808Y-358328D02*
G01X6970816Y-358328D01*
G01X6780575Y-574147D02*
G01X6644584Y-574147D01*
G01X6644584Y-574147D02*
G01X6644584Y-358328D01*
G01X6644584Y-358328D02*
G01X6780575Y-358328D01*
G01X8093423Y-641010D02*
G01X7957432Y-641010D01*
G01X7957432Y-641010D02*
G01X7957432Y-856829D01*
G01X7957432Y-856829D02*
G01X8093423Y-856829D01*
G01X8283664Y-641010D02*
G01X8419656Y-641010D01*
G01X8419656Y-641010D02*
G01X8419656Y-856829D01*
G01X8419656Y-856829D02*
G01X8283664Y-856829D01*
G01X8283664Y-574147D02*
G01X8419656Y-574147D01*
G01X8419656Y-574147D02*
G01X8419656Y-358328D01*
G01X8419656Y-358328D02*
G01X8283664Y-358328D01*
G01X8093423Y-574147D02*
G01X7957432Y-574147D01*
G01X7957432Y-574147D02*
G01X7957432Y-358328D01*
G01X7957432Y-358328D02*
G01X8093423Y-358328D01*
G54D11*
G01X292406Y-1874202D02*
G01X267006Y-1874202D01*
G01X432106Y-2255202D02*
G01X432106Y-1980517D01*
G01X176592Y-2255202D02*
G01X127306Y-2255202D01*
G01X127306Y-2255202D02*
G01X127306Y-1980517D01*
G01X432106Y-2255202D02*
G01X382820Y-2255202D01*
G01X1605254Y-1874202D02*
G01X1579854Y-1874202D01*
G01X1744954Y-2255202D02*
G01X1744954Y-1980517D01*
G01X1489440Y-2255202D02*
G01X1440154Y-2255202D01*
G01X1440154Y-2255202D02*
G01X1440154Y-1980517D01*
G01X1744954Y-2255202D02*
G01X1695668Y-2255202D01*
G01X2918102Y-1874202D02*
G01X2892702Y-1874202D01*
G01X3057802Y-2255202D02*
G01X3057802Y-1980517D01*
G01X2802288Y-2255202D02*
G01X2753002Y-2255202D01*
G01X2753002Y-2255202D02*
G01X2753002Y-1980517D01*
G01X3057802Y-2255202D02*
G01X3008516Y-2255202D01*
G01X4230950Y-1874202D02*
G01X4205550Y-1874202D01*
G01X4370650Y-2255202D02*
G01X4370650Y-1980517D01*
G01X4115136Y-2255202D02*
G01X4065850Y-2255202D01*
G01X4065850Y-2255202D02*
G01X4065850Y-1980517D01*
G01X4370650Y-2255202D02*
G01X4321364Y-2255202D01*
G01X5543798Y-1874202D02*
G01X5518398Y-1874202D01*
G01X5683498Y-2255202D02*
G01X5683498Y-1980517D01*
G01X5427984Y-2255202D02*
G01X5378698Y-2255202D01*
G01X5378698Y-2255202D02*
G01X5378698Y-1980517D01*
G01X5683498Y-2255202D02*
G01X5634212Y-2255202D01*
G01X6856646Y-1874202D02*
G01X6831246Y-1874202D01*
G01X6996346Y-2255202D02*
G01X6996346Y-1980517D01*
G01X6740832Y-2255202D02*
G01X6691546Y-2255202D01*
G01X6691546Y-2255202D02*
G01X6691546Y-1980517D01*
G01X6996346Y-2255202D02*
G01X6947060Y-2255202D01*
G01X8169494Y-1874202D02*
G01X8144094Y-1874202D01*
G01X8309194Y-2255202D02*
G01X8309194Y-1980517D01*
G01X8053680Y-2255202D02*
G01X8004394Y-2255202D01*
G01X8004394Y-2255202D02*
G01X8004394Y-1980517D01*
G01X8309194Y-2255202D02*
G01X8259908Y-2255202D01*
G54D12*
G01X5167808Y-553749D02*
G01X5167808Y-1430049D01*
G01X4888408Y-1430049D01*
G01X4888408Y-553749D01*
G01X5167808Y-553749D01*
G01X3617808Y-553749D02*
G01X3617808Y-1430049D01*
G01X3338408Y-1430049D01*
G01X3338408Y-553749D01*
G01X3617808Y-553749D01*
G54D11*
G01X501952Y-1774337D02*
G01X197152Y-1774337D01*
G01X197152Y-1494937D02*
G01X501952Y-1494937D01*
G01X324165Y-1609237D02*
G01X374965Y-1609237D01*
G01X374965Y-1660037D01*
G01X324165Y-1660037D01*
G01X324165Y-1609237D01*
G01X400365Y-1520337D02*
G01X425765Y-1520337D01*
G01X425765Y-1545737D01*
G01X400365Y-1545737D01*
G01X400365Y-1520337D01*
G01X400365Y-1723537D02*
G01X425765Y-1723537D01*
G01X425765Y-1748937D01*
G01X400365Y-1748937D01*
G01X400365Y-1723537D01*
G36*
G01X70152Y-1469537D02*
G01X171752Y-1469537D01*
G01X171752Y-1494937D01*
G01X57452Y-1494937D01*
G01X57452Y-1482237D01*
G01X57452Y-1469537D01*
G01X70152Y-1469537D01*
G37*
G36*
G01X101900Y-1526687D02*
G01X101900Y-1425087D01*
G01X127300Y-1425087D01*
G01X127302Y-1539387D01*
G01X114600Y-1539387D01*
G01X101900Y-1539390D01*
G01X101900Y-1526687D01*
G37*
G01X1814800Y-1774337D02*
G01X1510000Y-1774337D01*
G01X1510000Y-1494937D02*
G01X1814800Y-1494937D01*
G01X1637013Y-1609237D02*
G01X1687813Y-1609237D01*
G01X1687813Y-1660037D01*
G01X1637013Y-1660037D01*
G01X1637013Y-1609237D01*
G01X1713213Y-1520337D02*
G01X1738613Y-1520337D01*
G01X1738613Y-1545737D01*
G01X1713213Y-1545737D01*
G01X1713213Y-1520337D01*
G01X1713213Y-1723537D02*
G01X1738613Y-1723537D01*
G01X1738613Y-1748937D01*
G01X1713213Y-1748937D01*
G01X1713213Y-1723537D01*
G36*
G01X1383000Y-1469537D02*
G01X1484600Y-1469537D01*
G01X1484600Y-1494937D01*
G01X1370300Y-1494937D01*
G01X1370300Y-1482237D01*
G01X1370300Y-1469537D01*
G01X1383000Y-1469537D01*
G37*
G36*
G01X1414748Y-1526687D02*
G01X1414748Y-1425087D01*
G01X1440148Y-1425087D01*
G01X1440150Y-1539387D01*
G01X1427448Y-1539387D01*
G01X1414748Y-1539390D01*
G01X1414748Y-1526687D01*
G37*
G01X3127648Y-1774337D02*
G01X2822848Y-1774337D01*
G01X2822848Y-1494937D02*
G01X3127648Y-1494937D01*
G01X2949861Y-1609237D02*
G01X3000661Y-1609237D01*
G01X3000661Y-1660037D01*
G01X2949861Y-1660037D01*
G01X2949861Y-1609237D01*
G01X3026061Y-1520337D02*
G01X3051461Y-1520337D01*
G01X3051461Y-1545737D01*
G01X3026061Y-1545737D01*
G01X3026061Y-1520337D01*
G01X3026061Y-1723537D02*
G01X3051461Y-1723537D01*
G01X3051461Y-1748937D01*
G01X3026061Y-1748937D01*
G01X3026061Y-1723537D01*
G36*
G01X2695848Y-1469537D02*
G01X2797448Y-1469537D01*
G01X2797448Y-1494937D01*
G01X2683148Y-1494937D01*
G01X2683148Y-1482237D01*
G01X2683148Y-1469537D01*
G01X2695848Y-1469537D01*
G37*
G36*
G01X2727596Y-1526687D02*
G01X2727596Y-1425087D01*
G01X2752996Y-1425087D01*
G01X2752998Y-1539387D01*
G01X2740296Y-1539387D01*
G01X2727596Y-1539390D01*
G01X2727596Y-1526687D01*
G37*
G01X4440496Y-1774337D02*
G01X4135696Y-1774337D01*
G01X4135696Y-1494937D02*
G01X4440496Y-1494937D01*
G01X4262709Y-1609237D02*
G01X4313509Y-1609237D01*
G01X4313509Y-1660037D01*
G01X4262709Y-1660037D01*
G01X4262709Y-1609237D01*
G01X4338909Y-1520337D02*
G01X4364309Y-1520337D01*
G01X4364309Y-1545737D01*
G01X4338909Y-1545737D01*
G01X4338909Y-1520337D01*
G01X4338909Y-1723537D02*
G01X4364309Y-1723537D01*
G01X4364309Y-1748937D01*
G01X4338909Y-1748937D01*
G01X4338909Y-1723537D01*
G36*
G01X4008696Y-1469537D02*
G01X4110296Y-1469537D01*
G01X4110296Y-1494937D01*
G01X3995996Y-1494937D01*
G01X3995996Y-1482237D01*
G01X3995996Y-1469537D01*
G01X4008696Y-1469537D01*
G37*
G36*
G01X4040444Y-1526687D02*
G01X4040444Y-1425087D01*
G01X4065844Y-1425087D01*
G01X4065846Y-1539387D01*
G01X4053144Y-1539387D01*
G01X4040444Y-1539390D01*
G01X4040444Y-1526687D01*
G37*
G01X5753344Y-1774337D02*
G01X5448544Y-1774337D01*
G01X5448544Y-1494937D02*
G01X5753344Y-1494937D01*
G01X5575557Y-1609237D02*
G01X5626357Y-1609237D01*
G01X5626357Y-1660037D01*
G01X5575557Y-1660037D01*
G01X5575557Y-1609237D01*
G01X5651757Y-1520337D02*
G01X5677157Y-1520337D01*
G01X5677157Y-1545737D01*
G01X5651757Y-1545737D01*
G01X5651757Y-1520337D01*
G01X5651757Y-1723537D02*
G01X5677157Y-1723537D01*
G01X5677157Y-1748937D01*
G01X5651757Y-1748937D01*
G01X5651757Y-1723537D01*
G36*
G01X5321544Y-1469537D02*
G01X5423144Y-1469537D01*
G01X5423144Y-1494937D01*
G01X5308844Y-1494937D01*
G01X5308844Y-1482237D01*
G01X5308844Y-1469537D01*
G01X5321544Y-1469537D01*
G37*
G36*
G01X5353292Y-1526687D02*
G01X5353292Y-1425087D01*
G01X5378692Y-1425087D01*
G01X5378694Y-1539387D01*
G01X5365992Y-1539387D01*
G01X5353292Y-1539390D01*
G01X5353292Y-1526687D01*
G37*
G01X7066192Y-1774337D02*
G01X6761392Y-1774337D01*
G01X6761392Y-1494937D02*
G01X7066192Y-1494937D01*
G01X6888405Y-1609237D02*
G01X6939205Y-1609237D01*
G01X6939205Y-1660037D01*
G01X6888405Y-1660037D01*
G01X6888405Y-1609237D01*
G01X6964605Y-1520337D02*
G01X6990005Y-1520337D01*
G01X6990005Y-1545737D01*
G01X6964605Y-1545737D01*
G01X6964605Y-1520337D01*
G01X6964605Y-1723537D02*
G01X6990005Y-1723537D01*
G01X6990005Y-1748937D01*
G01X6964605Y-1748937D01*
G01X6964605Y-1723537D01*
G36*
G01X6634392Y-1469537D02*
G01X6735992Y-1469537D01*
G01X6735992Y-1494937D01*
G01X6621692Y-1494937D01*
G01X6621692Y-1482237D01*
G01X6621692Y-1469537D01*
G01X6634392Y-1469537D01*
G37*
G36*
G01X6666140Y-1526687D02*
G01X6666140Y-1425087D01*
G01X6691540Y-1425087D01*
G01X6691542Y-1539387D01*
G01X6678840Y-1539387D01*
G01X6666140Y-1539390D01*
G01X6666140Y-1526687D01*
G37*
G01X8379040Y-1774337D02*
G01X8074240Y-1774337D01*
G01X8074240Y-1494937D02*
G01X8379040Y-1494937D01*
G01X8201253Y-1609237D02*
G01X8252053Y-1609237D01*
G01X8252053Y-1660037D01*
G01X8201253Y-1660037D01*
G01X8201253Y-1609237D01*
G01X8277453Y-1520337D02*
G01X8302853Y-1520337D01*
G01X8302853Y-1545737D01*
G01X8277453Y-1545737D01*
G01X8277453Y-1520337D01*
G01X8277453Y-1723537D02*
G01X8302853Y-1723537D01*
G01X8302853Y-1748937D01*
G01X8277453Y-1748937D01*
G01X8277453Y-1723537D01*
G36*
G01X7947240Y-1469537D02*
G01X8048840Y-1469537D01*
G01X8048840Y-1494937D01*
G01X7934540Y-1494937D01*
G01X7934540Y-1482237D01*
G01X7934540Y-1469537D01*
G01X7947240Y-1469537D01*
G37*
G36*
G01X7978988Y-1526687D02*
G01X7978988Y-1425087D01*
G01X8004388Y-1425087D01*
G01X8004390Y-1539387D01*
G01X7991688Y-1539387D01*
G01X7978988Y-1539390D01*
G01X7978988Y-1526687D01*
G37*
G54D10*
G01X8093558Y-1206374D02*
G01X7957566Y-1206374D01*
G01X7957566Y-1206374D02*
G01X7957566Y-1422193D01*
G01X7957566Y-1422193D02*
G01X8093558Y-1422193D01*
G01X8283799Y-1206374D02*
G01X8419790Y-1206374D01*
G01X8419790Y-1206374D02*
G01X8419790Y-1422193D01*
G01X8419790Y-1422193D02*
G01X8283799Y-1422193D01*

G04 Circle Start*
G54D11*
G01X227331Y-2057387D02*
G03X332081Y-2057387I52375J0D01*
G03X227331Y-2057387I-52375J0D01*
G01X470206Y-1866887D02*
G03X495606Y-1866887I12700J0D01*
G03X470206Y-1866887I-12700J0D01*
G01X1540179Y-2057387D02*
G03X1644929Y-2057387I52375J0D01*
G03X1540179Y-2057387I-52375J0D01*
G01X1783054Y-1866887D02*
G03X1808454Y-1866887I12700J0D01*
G03X1783054Y-1866887I-12700J0D01*
G01X2853027Y-2057387D02*
G03X2957777Y-2057387I52375J0D01*
G03X2853027Y-2057387I-52375J0D01*
G01X3095902Y-1866887D02*
G03X3121302Y-1866887I12700J0D01*
G03X3095902Y-1866887I-12700J0D01*
G01X4165875Y-2057387D02*
G03X4270625Y-2057387I52375J0D01*
G03X4165875Y-2057387I-52375J0D01*
G01X4408750Y-1866887D02*
G03X4434150Y-1866887I12700J0D01*
G03X4408750Y-1866887I-12700J0D01*
G01X5478723Y-2057387D02*
G03X5583473Y-2057387I52375J0D01*
G03X5478723Y-2057387I-52375J0D01*
G01X5721598Y-1866887D02*
G03X5746998Y-1866887I12700J0D01*
G03X5721598Y-1866887I-12700J0D01*
G01X6791571Y-2057387D02*
G03X6896321Y-2057387I52375J0D01*
G03X6791571Y-2057387I-52375J0D01*
G01X7034446Y-1866887D02*
G03X7059846Y-1866887I12700J0D01*
G03X7034446Y-1866887I-12700J0D01*
G01X8104419Y-2057387D02*
G03X8209169Y-2057387I52375J0D01*
G03X8104419Y-2057387I-52375J0D01*
G01X8347294Y-1866887D02*
G03X8372694Y-1866887I12700J0D01*
G03X8347294Y-1866887I-12700J0D01*
G54D13*
G01X4936186Y-610899D02*
G03X4966209Y-610899I15011J0D01*
G03X4936186Y-610899I-15011J0D01*
G01X4736186Y-536960D02*
G03X4766209Y-536960I15011J0D01*
G03X4736186Y-536960I-15011J0D01*
G01X4736186Y-536960D02*
G03X4766209Y-536960I15011J0D01*
G03X4736186Y-536960I-15011J0D01*
G01X4936186Y-610899D02*
G03X4966209Y-610899I15011J0D01*
G03X4936186Y-610899I-15011J0D01*
G01X3386186Y-610899D02*
G03X3416208Y-610899I15011J0D01*
G03X3386186Y-610899I-15011J0D01*
G01X3186186Y-536960D02*
G03X3216209Y-536960I15011J0D01*
G03X3186186Y-536960I-15011J0D01*
G01X3186186Y-536960D02*
G03X3216209Y-536960I15011J0D01*
G03X3186186Y-536960I-15011J0D01*
G01X3386186Y-610899D02*
G03X3416208Y-610899I15011J0D01*
G03X3386186Y-610899I-15011J0D01*
G54D11*
G01X273365Y-1634637D02*
G03X425765Y-1634637I76200J0D01*
G03X273365Y-1634637I-76200J0D01*
G01X1586213Y-1634637D02*
G03X1738613Y-1634637I76200J0D01*
G03X1586213Y-1634637I-76200J0D01*
G01X2899061Y-1634637D02*
G03X3051461Y-1634637I76200J0D01*
G03X2899061Y-1634637I-76200J0D01*
G01X4211909Y-1634637D02*
G03X4364309Y-1634637I76200J0D01*
G03X4211909Y-1634637I-76200J0D01*
G01X5524757Y-1634637D02*
G03X5677157Y-1634637I76200J0D01*
G03X5524757Y-1634637I-76200J0D01*
G01X6837605Y-1634637D02*
G03X6990005Y-1634637I76200J0D01*
G03X6837605Y-1634637I-76200J0D01*
G01X8150453Y-1634637D02*
G03X8302853Y-1634637I76200J0D01*
G03X8150453Y-1634637I-76200J0D01*
G04 Circle End*

M02*

