G04 Layer: TopSolderMaskLayer*
G04 EasyEDA Pro v3.2.91, 2026-03-13 23:13:29*
G04 Gerber Generator version 0.3*
G04 Scale: 100 percent, Rotated: No, Reflected: No*
G04 Dimensions in millimeters*
G04 Leading zeros omitted, absolute positions, 4 integers and 5 decimals*
G04 Generated by one-click*
%FSLAX45Y45*%
%MOMM*%
%AMRoundRect*1,1,$1,$2,$3*1,1,$1,$4,$5*1,1,$1,0-$2,0-$3*1,1,$1,0-$4,0-$5*20,1,$1,$2,$3,$4,$5,0*20,1,$1,$4,$5,0-$2,0-$3,0*20,1,$1,0-$2,0-$3,0-$4,0-$5,0*20,1,$1,0-$4,0-$5,$2,$3,0*4,1,4,$2,$3,$4,$5,0-$2,0-$3,0-$4,0-$5,$2,$3,0*%
%ADD10RoundRect,0.1016X-0.74251X0.86399X0.74251X0.86399*%
%ADD11RoundRect,0.1016X-0.85X0.85X0.85X0.85*%
%ADD12C,1.8016*%
%ADD13RoundRect,0.1016X-0.60376X0.85051X0.60376X0.85051*%
%ADD14RoundRect,0.1016X-0.6X0.6X0.6X0.6*%
%ADD15RoundRect,0.1016X-0.8X0.75X0.8X0.75*%
%ADD16O,2.13959X0.67559*%
%ADD17RoundRect,0.1011X-0.55X1.05X0.55X1.05*%
%ADD18RoundRect,0.1016X-0.55X1.05X0.55X1.05*%
G75*


G04 Pad Start*
G54D10*
G01X5963158Y-151556D03*
G01X5644642Y-151556D03*
G01X6547358Y-151556D03*
G01X6228842Y-151556D03*
G54D11*
G01X3234000Y-172374D03*
G54D12*
G01X3488000Y-172374D03*
G01X3742000Y-172374D03*
G01X3996000Y-172374D03*
G01X4250000Y-172374D03*
G01X4504000Y-172374D03*
G01X4758000Y-172374D03*
G01X5012000Y-172374D03*
G01X5266000Y-172374D03*
G54D13*
G01X163577Y-1031601D03*
G01X459335Y-1031601D03*
G01X459335Y-1314283D03*
G01X163577Y-1314283D03*
G01X1476425Y-1031601D03*
G01X1772183Y-1031601D03*
G01X1772183Y-1314283D03*
G01X1476425Y-1314283D03*
G01X2552121Y-1031601D03*
G01X2847879Y-1031601D03*
G01X2847879Y-1314283D03*
G01X2552121Y-1314283D03*
G01X4102121Y-1031601D03*
G01X4397879Y-1031601D03*
G01X4397879Y-1314283D03*
G01X4102121Y-1314283D03*
G01X5652121Y-1031601D03*
G01X5947879Y-1031601D03*
G01X5947879Y-1314283D03*
G01X5652121Y-1314283D03*
G01X6727817Y-1031601D03*
G01X7023575Y-1031601D03*
G01X7023575Y-1314283D03*
G01X6727817Y-1314283D03*
G01X8040665Y-1031601D03*
G01X8336423Y-1031601D03*
G01X169621Y-748919D03*
G01X465379Y-748919D03*
G01X465379Y-466237D03*
G01X169621Y-466237D03*
G01X1451025Y-748919D03*
G01X1746783Y-748919D03*
G01X1746783Y-466237D03*
G01X1451025Y-466237D03*
G01X2552121Y-748919D03*
G01X2847879Y-748919D03*
G01X2847879Y-466237D03*
G01X2552121Y-466237D03*
G01X4102121Y-748919D03*
G01X4397879Y-748919D03*
G01X4397879Y-466237D03*
G01X4102121Y-466237D03*
G01X5652121Y-748919D03*
G01X5947879Y-748919D03*
G01X5947879Y-466237D03*
G01X5652121Y-466237D03*
G01X6727817Y-748919D03*
G01X7023575Y-748919D03*
G01X7023575Y-466237D03*
G01X6727817Y-466237D03*
G01X8040665Y-748919D03*
G01X8336423Y-748919D03*
G01X8336423Y-466237D03*
G01X8040665Y-466237D03*
G54D14*
G01X374707Y-1897393D03*
G01X184705Y-1897393D03*
G54D15*
G01X279706Y-2217407D03*
G54D14*
G01X1687555Y-1897393D03*
G01X1497553Y-1897393D03*
G54D15*
G01X1592554Y-2217407D03*
G54D14*
G01X3000403Y-1897393D03*
G01X2810401Y-1897393D03*
G54D15*
G01X2905402Y-2217407D03*
G54D14*
G01X4313251Y-1897393D03*
G01X4123249Y-1897393D03*
G54D15*
G01X4218250Y-2217407D03*
G54D14*
G01X5626099Y-1897393D03*
G01X5436097Y-1897393D03*
G54D15*
G01X5531098Y-2217407D03*
G54D14*
G01X6938947Y-1897393D03*
G01X6748945Y-1897393D03*
G54D15*
G01X6843946Y-2217407D03*
G54D14*
G01X8251795Y-1897393D03*
G01X8061793Y-1897393D03*
G54D15*
G01X8156794Y-2217407D03*
G54D16*
G01X5290008Y-1372899D03*
G01X5290008Y-1245899D03*
G01X5290008Y-1118899D03*
G01X5290008Y-991899D03*
G01X5290008Y-864899D03*
G01X5290008Y-737899D03*
G01X5290008Y-610899D03*
G01X4766209Y-1372899D03*
G01X4766209Y-1245899D03*
G01X4766209Y-1118899D03*
G01X4766209Y-991899D03*
G01X4766209Y-864899D03*
G01X4766209Y-737899D03*
G01X4766209Y-610899D03*
G01X3740008Y-1372899D03*
G01X3740008Y-1245899D03*
G01X3740008Y-1118899D03*
G01X3740008Y-991899D03*
G01X3740008Y-864899D03*
G01X3740008Y-737899D03*
G01X3740008Y-610899D03*
G01X3216209Y-1372899D03*
G01X3216209Y-1245899D03*
G01X3216209Y-1118899D03*
G01X3216209Y-991899D03*
G01X3216209Y-864899D03*
G01X3216209Y-737899D03*
G01X3216209Y-610899D03*
G54D18*
G01X194549Y-1634637D03*
G01X504556Y-1634637D03*
G01X1507397Y-1634637D03*
G01X1817404Y-1634637D03*
G01X2820245Y-1634637D03*
G01X3130252Y-1634637D03*
G01X4133093Y-1634637D03*
G01X4443100Y-1634637D03*
G01X5445941Y-1634637D03*
G01X5755948Y-1634637D03*
G01X6758789Y-1634637D03*
G01X7068796Y-1634637D03*
G01X8071637Y-1634637D03*
G01X8381644Y-1634637D03*
G54D13*
G01X8040799Y-1314283D03*
G01X8336557Y-1314283D03*
G04 Pad End*

M02*

