G04 Layer: BottomLayer*
G04 EasyEDA Pro v3.2.91, 2026-03-13 23:13:29*
G04 Gerber Generator version 0.3*
G04 Scale: 100 percent, Rotated: No, Reflected: No*
G04 Dimensions in millimeters*
G04 Leading zeros omitted, absolute positions, 4 integers and 5 decimals*
G04 Generated by one-click*
%FSLAX45Y45*%
%MOMM*%
%ADD10C,0.2032*%
%ADD11C,0.254*%
%ADD12R,1.7X1.7*%
%ADD13C,1.7*%
%ADD14R,1.62499X1.15921*%
%ADD15C,0.6151*%
%ADD16C,0.61*%
G75*


G04 Copper Start*
G36*
G01X100000Y-2764186D02*
G01X86152Y-2762674D01*
G01X72956Y-2758210D01*
G01X61034Y-2751005D01*
G01X50947Y-2741397D01*
G01X43171Y-2729839D01*
G01X38072Y-2716875D01*
G01X48518Y-2722598D01*
G01X60264Y-2724579D01*
G01X222763Y-2724579D01*
G01X233830Y-2722826D01*
G01X243814Y-2717739D01*
G01X251737Y-2709816D01*
G01X256824Y-2699832D01*
G01X258577Y-2688765D01*
G01X258577Y-2572845D01*
G01X256824Y-2561778D01*
G01X251737Y-2551794D01*
G01X243814Y-2543871D01*
G01X233830Y-2538784D01*
G01X222763Y-2537031D01*
G01X60264Y-2537031D01*
G01X51387Y-2538148D01*
G01X43064Y-2541432D01*
G01X35814Y-2546675D01*
G01X35814Y-2507925D01*
G01X43064Y-2513168D01*
G01X51387Y-2516452D01*
G01X60264Y-2517569D01*
G01X222763Y-2517569D01*
G01X233830Y-2515816D01*
G01X243814Y-2510729D01*
G01X251737Y-2502806D01*
G01X256824Y-2492822D01*
G01X258577Y-2481755D01*
G01X258577Y-2365835D01*
G01X256824Y-2354768D01*
G01X251737Y-2344784D01*
G01X243814Y-2336861D01*
G01X233830Y-2331774D01*
G01X222763Y-2330021D01*
G01X190024Y-2330021D01*
G01X190024Y-1369522D01*
G01X360076Y-1199471D01*
G01X375257Y-1197156D01*
G01X389499Y-1191412D01*
G01X402037Y-1182546D01*
G01X412200Y-1171033D01*
G01X419443Y-1157492D01*
G01X423377Y-1142647D01*
G01X423790Y-1127296D01*
G01X420662Y-1112262D01*
G01X414159Y-1098350D01*
G01X404630Y-1086307D01*
G01X392587Y-1076778D01*
G01X378675Y-1070275D01*
G01X363641Y-1067147D01*
G01X348290Y-1067561D01*
G01X333445Y-1071494D01*
G01X319904Y-1078737D01*
G01X308391Y-1088900D01*
G01X299525Y-1101438D01*
G01X293781Y-1115680D01*
G01X291467Y-1130861D01*
G01X107205Y-1315123D01*
G01X99495Y-1325170D01*
G01X94649Y-1336871D01*
G01X92996Y-1349427D01*
G01X92996Y-2330021D01*
G01X60264Y-2330021D01*
G01X51387Y-2331138D01*
G01X43064Y-2334422D01*
G01X35814Y-2339665D01*
G01X35814Y-300000D01*
G01X804186Y-300000D01*
G01X806179Y-327867D01*
G01X812118Y-355167D01*
G01X821881Y-381344D01*
G01X835271Y-405865D01*
G01X852014Y-428231D01*
G01X871769Y-447986D01*
G01X894135Y-464729D01*
G01X918656Y-478119D01*
G01X944833Y-487882D01*
G01X972133Y-493821D01*
G01X1000000Y-495814D01*
G01X1027867Y-493821D01*
G01X1055167Y-487882D01*
G01X1081344Y-478119D01*
G01X1105865Y-464729D01*
G01X1128231Y-447986D01*
G01X1147986Y-428231D01*
G01X1164729Y-405865D01*
G01X1178119Y-381344D01*
G01X1187882Y-355167D01*
G01X1193821Y-327867D01*
G01X1195814Y-300000D01*
G01X1193821Y-272133D01*
G01X1187882Y-244833D01*
G01X1178119Y-218656D01*
G01X1164729Y-194135D01*
G01X1147986Y-171769D01*
G01X1128231Y-152014D01*
G01X1105865Y-135271D01*
G01X1081344Y-121881D01*
G01X1055167Y-112118D01*
G01X1027867Y-106179D01*
G01X1000000Y-104186D01*
G01X972133Y-106179D01*
G01X944833Y-112118D01*
G01X918656Y-121881D01*
G01X894135Y-135271D01*
G01X871769Y-152014D01*
G01X852014Y-171769D01*
G01X835271Y-194135D01*
G01X821881Y-218656D01*
G01X812118Y-244833D01*
G01X806179Y-272133D01*
G01X804186Y-300000D01*
G01X804186Y-300000D01*
G01X35814Y-300000D01*
G01X35814Y-100000D01*
G01X37423Y-85717D01*
G01X42170Y-72151D01*
G01X49817Y-59981D01*
G01X59981Y-49817D01*
G01X72151Y-42170D01*
G01X85717Y-37423D01*
G01X100000Y-35814D01*
G01X8400000Y-35814D01*
G01X8414283Y-37423D01*
G01X8427849Y-42170D01*
G01X8440019Y-49817D01*
G01X8450183Y-59981D01*
G01X8457830Y-72151D01*
G01X8462577Y-85717D01*
G01X8464186Y-100000D01*
G01X8464186Y-2330683D01*
G01X8457331Y-2330021D01*
G01X8294832Y-2330021D01*
G01X8283764Y-2331774D01*
G01X8273781Y-2336861D01*
G01X8265857Y-2344784D01*
G01X8260770Y-2354768D01*
G01X8259018Y-2365835D01*
G01X8259018Y-2481755D01*
G01X8260770Y-2492821D01*
G01X8133913Y-2492821D01*
G01X8135665Y-2481755D01*
G01X8135665Y-2365835D01*
G01X8133912Y-2354768D01*
G01X8128825Y-2344784D01*
G01X8120902Y-2336861D01*
G01X8110918Y-2331774D01*
G01X8099851Y-2330021D01*
G01X8067118Y-2330021D01*
G01X8067118Y-1369512D01*
G01X8237160Y-1199471D01*
G01X8252341Y-1197156D01*
G01X8266583Y-1191412D01*
G01X8279122Y-1182546D01*
G01X8289285Y-1171033D01*
G01X8296527Y-1157492D01*
G01X8300461Y-1142647D01*
G01X8300874Y-1127296D01*
G01X8297746Y-1112262D01*
G01X8291243Y-1098350D01*
G01X8281715Y-1086307D01*
G01X8269672Y-1076778D01*
G01X8255760Y-1070275D01*
G01X8240725Y-1067147D01*
G01X8225374Y-1067561D01*
G01X8210530Y-1071494D01*
G01X8196988Y-1078737D01*
G01X8185476Y-1088900D01*
G01X8176609Y-1101438D01*
G01X8170865Y-1115680D01*
G01X8168551Y-1130861D01*
G01X7984299Y-1315113D01*
G01X7976590Y-1325160D01*
G01X7971743Y-1336861D01*
G01X7970090Y-1349417D01*
G01X7970090Y-2330021D01*
G01X7954118Y-2330021D01*
G01X7954118Y-1403187D01*
G01X7952465Y-1390631D01*
G01X7947619Y-1378930D01*
G01X7939909Y-1368882D01*
G01X7882977Y-1311951D01*
G01X7880724Y-1296995D01*
G01X7875141Y-1282939D01*
G01X7866518Y-1270513D01*
G01X7855304Y-1260365D01*
G01X7842082Y-1253021D01*
G01X7827540Y-1248865D01*
G01X7812434Y-1248111D01*
G01X7797550Y-1250800D01*
G01X7783663Y-1256791D01*
G01X7771495Y-1265773D01*
G01X7290701Y-1265773D01*
G01X6873111Y-848184D01*
G01X6863063Y-840474D01*
G01X6851363Y-835627D01*
G01X6838806Y-833974D01*
G01X5121875Y-833974D01*
G01X5124692Y-819642D01*
G01X5124302Y-805040D01*
G01X5120726Y-790878D01*
G01X5114135Y-777843D01*
G01X5104851Y-766567D01*
G01X5093324Y-757596D01*
G01X5080112Y-751367D01*
G01X5065857Y-748182D01*
G01X5051250Y-748194D01*
G01X5037001Y-751404D01*
G01X5023800Y-757656D01*
G01X5012287Y-766646D01*
G01X5003023Y-777938D01*
G01X4996455Y-790984D01*
G01X4652725Y-790984D01*
G01X4663478Y-782410D01*
G01X4672230Y-771803D01*
G01X4678607Y-759619D01*
G01X4682333Y-746381D01*
G01X4683249Y-732659D01*
G01X4681314Y-719043D01*
G01X4692822Y-710581D01*
G01X4702251Y-699850D01*
G01X4709163Y-687350D01*
G01X4713237Y-673659D01*
G01X4714285Y-659413D01*
G01X7124966Y-659413D01*
G01X7132657Y-658799D01*
G01X7148744Y-659270D01*
G01X7164471Y-655851D01*
G01X7178911Y-648745D01*
G01X7191214Y-638368D01*
G01X7200655Y-625334D01*
G01X7206678Y-610409D01*
G01X7208928Y-594473D01*
G01X7207273Y-578464D01*
G01X7201810Y-563326D01*
G01X7192861Y-549949D01*
G01X7180952Y-539122D01*
G01X7166787Y-531483D01*
G01X7151198Y-527481D01*
G01X7135104Y-527353D01*
G01X7119454Y-531105D01*
G01X7105168Y-538517D01*
G01X7093088Y-549153D01*
G01X7083927Y-562385D01*
G01X5302388Y-562385D01*
G01X5306382Y-546685D01*
G01X5306451Y-530486D01*
G01X5302590Y-514753D01*
G01X5627744Y-514753D01*
G01X5638934Y-525944D01*
G01X5648982Y-533653D01*
G01X5660683Y-538500D01*
G01X5673239Y-540153D01*
G01X5883761Y-540153D01*
G01X5896317Y-538500D01*
G01X5908018Y-533653D01*
G01X5918066Y-525944D01*
G01X6107056Y-336953D01*
G01X6724367Y-336953D01*
G01X6736738Y-346052D01*
G01X6750870Y-352060D01*
G01X6766006Y-354657D01*
G01X6781333Y-353703D01*
G01X6796029Y-349249D01*
G01X6809307Y-341534D01*
G01X6820454Y-330971D01*
G01X6828873Y-318128D01*
G01X6834112Y-303693D01*
G01X6834543Y-299999D01*
G01X7304186Y-299999D01*
G01X7306179Y-327866D01*
G01X7312118Y-355166D01*
G01X7321881Y-381343D01*
G01X7335271Y-405864D01*
G01X7352014Y-428229D01*
G01X7371769Y-447985D01*
G01X7394135Y-464728D01*
G01X7418656Y-478117D01*
G01X7444833Y-487881D01*
G01X7472133Y-493819D01*
G01X7500000Y-495813D01*
G01X7527867Y-493819D01*
G01X7555167Y-487881D01*
G01X7581344Y-478117D01*
G01X7605865Y-464728D01*
G01X7628231Y-447985D01*
G01X7647986Y-428229D01*
G01X7664729Y-405864D01*
G01X7678119Y-381343D01*
G01X7687882Y-355166D01*
G01X7693821Y-327866D01*
G01X7695814Y-299999D01*
G01X7693821Y-272131D01*
G01X7687882Y-244831D01*
G01X7678119Y-218655D01*
G01X7664729Y-194134D01*
G01X7647986Y-171768D01*
G01X7628231Y-152012D01*
G01X7605865Y-135269D01*
G01X7581344Y-121880D01*
G01X7555167Y-112117D01*
G01X7527867Y-106178D01*
G01X7500000Y-104185D01*
G01X7472133Y-106178D01*
G01X7444833Y-112117D01*
G01X7418656Y-121880D01*
G01X7394135Y-135269D01*
G01X7371769Y-152012D01*
G01X7352014Y-171768D01*
G01X7335271Y-194134D01*
G01X7321881Y-218655D01*
G01X7312118Y-244831D01*
G01X7306179Y-272131D01*
G01X7304186Y-299999D01*
G01X7304186Y-299999D01*
G01X6834543Y-299999D01*
G01X6835890Y-288439D01*
G01X6834112Y-273186D01*
G01X6828873Y-258751D01*
G01X6820454Y-245907D01*
G01X6809307Y-235345D01*
G01X6796029Y-227630D01*
G01X6781333Y-223176D01*
G01X6766006Y-222222D01*
G01X6750870Y-224819D01*
G01X6736738Y-230827D01*
G01X6724367Y-239925D01*
G01X6086961Y-239925D01*
G01X6074404Y-241579D01*
G01X6062704Y-246425D01*
G01X6052656Y-254135D01*
G01X5863666Y-443125D01*
G01X5830336Y-443125D01*
G01X5835049Y-428721D01*
G01X5836368Y-413622D01*
G01X5834224Y-398619D01*
G01X5828729Y-384494D01*
G01X5820172Y-371986D01*
G01X5808997Y-361747D01*
G01X5795790Y-354313D01*
G01X5781240Y-350071D01*
G01X5766107Y-349244D01*
G01X5751181Y-351875D01*
G01X5737243Y-357825D01*
G01X5725019Y-366785D01*
G01X4234610Y-366785D01*
G01X4244662Y-357423D01*
G01X4252570Y-346189D01*
G01X4257993Y-333568D01*
G01X4260699Y-320100D01*
G01X4260573Y-306363D01*
G01X4257619Y-292948D01*
G01X4278835Y-289697D01*
G01X4299141Y-282743D01*
G01X4317896Y-272305D01*
G01X4334508Y-258713D01*
G01X4348452Y-242397D01*
G01X4359289Y-223870D01*
G01X4366677Y-203718D01*
G01X4370382Y-182576D01*
G01X4370337Y-172374D01*
G01X4383186Y-172374D01*
G01X4385022Y-193353D01*
G01X4390472Y-213695D01*
G01X4399372Y-232781D01*
G01X4411451Y-250032D01*
G01X4426342Y-264923D01*
G01X4443593Y-277002D01*
G01X4462679Y-285902D01*
G01X4483021Y-291353D01*
G01X4504000Y-293188D01*
G01X4524979Y-291353D01*
G01X4545321Y-285902D01*
G01X4564407Y-277002D01*
G01X4581658Y-264923D01*
G01X4596549Y-250032D01*
G01X4608628Y-232781D01*
G01X4617528Y-213695D01*
G01X4622978Y-193353D01*
G01X4624814Y-172374D01*
G01X4637186Y-172374D01*
G01X4639022Y-193353D01*
G01X4644472Y-213695D01*
G01X4653372Y-232781D01*
G01X4665451Y-250032D01*
G01X4680342Y-264923D01*
G01X4697593Y-277002D01*
G01X4716679Y-285902D01*
G01X4737021Y-291353D01*
G01X4758000Y-293188D01*
G01X4778979Y-291353D01*
G01X4799321Y-285902D01*
G01X4818407Y-277002D01*
G01X4835658Y-264923D01*
G01X4850549Y-250032D01*
G01X4862628Y-232781D01*
G01X4871528Y-213695D01*
G01X4876978Y-193353D01*
G01X4878814Y-172374D01*
G01X4891186Y-172374D01*
G01X4893022Y-193353D01*
G01X4898472Y-213695D01*
G01X4907372Y-232781D01*
G01X4919451Y-250032D01*
G01X4934342Y-264923D01*
G01X4951593Y-277002D01*
G01X4970679Y-285902D01*
G01X4991021Y-291353D01*
G01X5012000Y-293188D01*
G01X5032979Y-291353D01*
G01X5053321Y-285902D01*
G01X5072407Y-277002D01*
G01X5089658Y-264923D01*
G01X5104549Y-250032D01*
G01X5116628Y-232781D01*
G01X5125528Y-213695D01*
G01X5130978Y-193353D01*
G01X5132814Y-172374D01*
G01X5145186Y-172374D01*
G01X5147022Y-193353D01*
G01X5152472Y-213695D01*
G01X5161372Y-232781D01*
G01X5173451Y-250032D01*
G01X5188342Y-264923D01*
G01X5205593Y-277002D01*
G01X5224679Y-285902D01*
G01X5245021Y-291353D01*
G01X5266000Y-293188D01*
G01X5286979Y-291353D01*
G01X5307321Y-285902D01*
G01X5326407Y-277002D01*
G01X5343658Y-264923D01*
G01X5358549Y-250032D01*
G01X5370628Y-232781D01*
G01X5379528Y-213695D01*
G01X5384978Y-193353D01*
G01X5386814Y-172374D01*
G01X5384978Y-151395D01*
G01X5379528Y-131054D01*
G01X5370628Y-111967D01*
G01X5358549Y-94717D01*
G01X5343658Y-79826D01*
G01X5326407Y-67746D01*
G01X5307321Y-58846D01*
G01X5286979Y-53396D01*
G01X5266000Y-51560D01*
G01X5245021Y-53396D01*
G01X5224679Y-58846D01*
G01X5205593Y-67746D01*
G01X5188342Y-79826D01*
G01X5173451Y-94717D01*
G01X5161372Y-111967D01*
G01X5152472Y-131054D01*
G01X5147022Y-151395D01*
G01X5145186Y-172374D01*
G01X5145186Y-172374D01*
G01X5132814Y-172374D01*
G01X5130978Y-151395D01*
G01X5125528Y-131054D01*
G01X5116628Y-111967D01*
G01X5104549Y-94717D01*
G01X5089658Y-79826D01*
G01X5072407Y-67746D01*
G01X5053321Y-58846D01*
G01X5032979Y-53396D01*
G01X5012000Y-51560D01*
G01X4991021Y-53396D01*
G01X4970679Y-58846D01*
G01X4951593Y-67746D01*
G01X4934342Y-79826D01*
G01X4919451Y-94717D01*
G01X4907372Y-111967D01*
G01X4898472Y-131054D01*
G01X4893022Y-151395D01*
G01X4891186Y-172374D01*
G01X4891186Y-172374D01*
G01X4878814Y-172374D01*
G01X4876978Y-151395D01*
G01X4871528Y-131054D01*
G01X4862628Y-111967D01*
G01X4850549Y-94717D01*
G01X4835658Y-79826D01*
G01X4818407Y-67746D01*
G01X4799321Y-58846D01*
G01X4778979Y-53396D01*
G01X4758000Y-51560D01*
G01X4737021Y-53396D01*
G01X4716679Y-58846D01*
G01X4697593Y-67746D01*
G01X4680342Y-79826D01*
G01X4665451Y-94717D01*
G01X4653372Y-111967D01*
G01X4644472Y-131054D01*
G01X4639022Y-151395D01*
G01X4637186Y-172374D01*
G01X4637186Y-172374D01*
G01X4624814Y-172374D01*
G01X4622978Y-151395D01*
G01X4617528Y-131054D01*
G01X4608628Y-111967D01*
G01X4596549Y-94717D01*
G01X4581658Y-79826D01*
G01X4564407Y-67746D01*
G01X4545321Y-58846D01*
G01X4524979Y-53396D01*
G01X4504000Y-51560D01*
G01X4483021Y-53396D01*
G01X4462679Y-58846D01*
G01X4443593Y-67746D01*
G01X4426342Y-79826D01*
G01X4411451Y-94717D01*
G01X4399372Y-111967D01*
G01X4390472Y-131054D01*
G01X4385022Y-151395D01*
G01X4383186Y-172374D01*
G01X4383186Y-172374D01*
G01X4370337Y-172374D01*
G01X4370288Y-161113D01*
G01X4366397Y-140005D01*
G01X4358832Y-119918D01*
G01X4347832Y-101488D01*
G01X4333744Y-85294D01*
G01X4317013Y-71849D01*
G01X4298167Y-61577D01*
G01X4277800Y-54803D01*
G01X4256557Y-51739D01*
G01X4235106Y-52482D01*
G01X4214125Y-57010D01*
G01X4194277Y-65179D01*
G01X4176187Y-76731D01*
G01X4160427Y-91302D01*
G01X4147494Y-108432D01*
G01X4137797Y-127580D01*
G01X4131641Y-148142D01*
G01X4129221Y-169469D01*
G01X4130613Y-190888D01*
G01X4135773Y-211722D01*
G01X4115326Y-191275D01*
G01X4116783Y-169628D01*
G01X4114344Y-148071D01*
G01X4108089Y-127296D01*
G01X4098220Y-107976D01*
G01X4085054Y-90732D01*
G01X4069016Y-76121D01*
G01X4050624Y-64614D01*
G01X4030470Y-56582D01*
G01X4009204Y-52284D01*
G01X3987513Y-51859D01*
G01X3966096Y-55320D01*
G01X3945642Y-62556D01*
G01X3926813Y-73333D01*
G01X3910215Y-87304D01*
G01X3896383Y-104019D01*
G01X3885764Y-122937D01*
G01X3878700Y-143450D01*
G01X3875418Y-164896D01*
G01X3860771Y-150249D01*
G01X3854857Y-129255D01*
G01X3845266Y-109667D01*
G01X3832309Y-92123D01*
G01X3816409Y-77194D01*
G01X3798084Y-65367D01*
G01X3777931Y-57027D01*
G01X3756607Y-52447D01*
G01X3734807Y-51775D01*
G01X3713242Y-55033D01*
G01X3692613Y-62116D01*
G01X3673595Y-72792D01*
G01X3656805Y-86713D01*
G01X3642792Y-103426D01*
G01X3632013Y-122386D01*
G01X3624818Y-142976D01*
G01X3621442Y-164523D01*
G01X3621994Y-186326D01*
G01X3626458Y-207675D01*
G01X3634688Y-227873D01*
G01X3646415Y-246262D01*
G01X3604505Y-204352D01*
G01X3608195Y-184588D01*
G01X3608556Y-164485D01*
G01X3605578Y-144600D01*
G01X3599343Y-125485D01*
G01X3590025Y-107668D01*
G01X3577881Y-91644D01*
G01X3563247Y-77855D01*
G01X3546530Y-66685D01*
G01X3528191Y-58442D01*
G01X3508739Y-53354D01*
G01X3488713Y-51563D01*
G01X3468667Y-53117D01*
G01X3449156Y-57975D01*
G01X3430721Y-66002D01*
G01X3413873Y-76974D01*
G01X3399078Y-90589D01*
G01X3386746Y-106469D01*
G01X3377218Y-124174D01*
G01X3370758Y-143215D01*
G01X3367546Y-163063D01*
G01X3354814Y-150331D01*
G01X3354814Y-87374D01*
G01X3353061Y-76307D01*
G01X3347974Y-66324D01*
G01X3340051Y-58400D01*
G01X3330067Y-53313D01*
G01X3319000Y-51560D01*
G01X3149000Y-51560D01*
G01X3137933Y-53313D01*
G01X3127949Y-58400D01*
G01X3120026Y-66324D01*
G01X3114939Y-76307D01*
G01X3113186Y-87374D01*
G01X3113186Y-257374D01*
G01X3114939Y-268441D01*
G01X3120026Y-278425D01*
G01X3127949Y-286348D01*
G01X3137933Y-291435D01*
G01X3149000Y-293188D01*
G01X3319000Y-293188D01*
G01X3329549Y-291599D01*
G01X3339162Y-286974D01*
G01X3346986Y-279722D01*
G01X3483868Y-416604D01*
G01X3493916Y-424314D01*
G01X3505617Y-429160D01*
G01X3518173Y-430813D01*
G01X3955277Y-430813D01*
G01X4086848Y-562385D01*
G01X1518227Y-562385D01*
G01X1505856Y-553287D01*
G01X1491723Y-547278D01*
G01X1476588Y-544681D01*
G01X1461261Y-545635D01*
G01X1446564Y-550089D01*
G01X1433286Y-557804D01*
G01X1422139Y-568367D01*
G01X1413720Y-581210D01*
G01X1408481Y-595645D01*
G01X1406703Y-610899D01*
G01X1408481Y-626152D01*
G01X1413720Y-640588D01*
G01X1422139Y-653431D01*
G01X1433286Y-663993D01*
G01X1446564Y-671708D01*
G01X1461261Y-676162D01*
G01X1476588Y-677117D01*
G01X1491723Y-674520D01*
G01X1505856Y-668511D01*
G01X1518227Y-659413D01*
G01X2371130Y-659413D01*
G01X2367115Y-673785D01*
G01X2366415Y-688692D01*
G01X2369066Y-703377D01*
G01X2374934Y-717098D01*
G01X2383721Y-729160D01*
G01X2394982Y-738951D01*
G01X2408148Y-745976D01*
G01X2422552Y-749879D01*
G01X2437463Y-750463D01*
G01X2452128Y-747698D01*
G01X2465802Y-741723D01*
G01X2477795Y-732843D01*
G01X2661708Y-732843D01*
G01X2656265Y-747278D01*
G01X2654305Y-762581D01*
G01X2655933Y-777923D01*
G01X2661063Y-792473D01*
G01X2669416Y-805444D01*
G01X2680540Y-816134D01*
G01X2693833Y-823964D01*
G01X2708576Y-828511D01*
G01X2723971Y-829527D01*
G01X2739183Y-826960D01*
G01X2753391Y-820946D01*
G01X2765825Y-811812D01*
G01X2929119Y-811812D01*
G01X2959141Y-841835D01*
G01X2961456Y-857016D01*
G01X2967200Y-871258D01*
G01X2976066Y-883796D01*
G01X2987579Y-893960D01*
G01X3001120Y-901202D01*
G01X3015964Y-905136D01*
G01X3031316Y-905549D01*
G01X3046350Y-902421D01*
G01X3060262Y-895918D01*
G01X3072305Y-886389D01*
G01X3081834Y-874346D01*
G01X3088336Y-860434D01*
G01X3091465Y-845400D01*
G01X3091051Y-830049D01*
G01X3087118Y-815204D01*
G01X3079875Y-801663D01*
G01X3069712Y-790150D01*
G01X3057173Y-781284D01*
G01X3042932Y-775540D01*
G01X3027750Y-773226D01*
G01X2987367Y-732843D01*
G01X4114287Y-732843D01*
G01X4150877Y-769433D01*
G01X4160925Y-777143D01*
G01X4172625Y-781989D01*
G01X4185182Y-783643D01*
G01X4571771Y-783643D01*
G01X4581236Y-790984D01*
G01X3661613Y-790984D01*
G01X3649056Y-792637D01*
G01X3637356Y-797484D01*
G01X3627308Y-805194D01*
G01X3514518Y-917984D01*
G01X1731216Y-917984D01*
G01X1718660Y-919637D01*
G01X1706959Y-924484D01*
G01X1696912Y-932194D01*
G01X1387350Y-1241755D01*
G01X1373434Y-1234580D01*
G01X1358223Y-1230869D01*
G01X1342567Y-1230826D01*
G01X1327336Y-1234456D01*
G01X1313381Y-1241555D01*
G01X1301480Y-1251728D01*
G01X1292295Y-1264408D01*
G01X1286339Y-1278888D01*
G01X1283944Y-1294361D01*
G01X579314Y-1998991D01*
G01X571604Y-2009039D01*
G01X566758Y-2020740D01*
G01X565105Y-2033296D01*
G01X565105Y-2330021D01*
G01X417744Y-2330021D01*
G01X406677Y-2331774D01*
G01X396693Y-2336861D01*
G01X388770Y-2344784D01*
G01X383683Y-2354768D01*
G01X381930Y-2365835D01*
G01X381930Y-2481755D01*
G01X383683Y-2492822D01*
G01X388770Y-2502806D01*
G01X396693Y-2510729D01*
G01X406677Y-2515816D01*
G01X417744Y-2517569D01*
G01X541902Y-2517569D01*
G01X522864Y-2537031D01*
G01X417744Y-2537031D01*
G01X406677Y-2538784D01*
G01X396693Y-2543871D01*
G01X388770Y-2551794D01*
G01X383683Y-2561778D01*
G01X381930Y-2572845D01*
G01X381930Y-2688765D01*
G01X383683Y-2699832D01*
G01X388770Y-2709816D01*
G01X396693Y-2717739D01*
G01X406677Y-2722826D01*
G01X417744Y-2724579D01*
G01X580243Y-2724579D01*
G01X591310Y-2722826D01*
G01X601294Y-2717739D01*
G01X609217Y-2709816D01*
G01X614304Y-2699832D01*
G01X616057Y-2688765D01*
G01X616057Y-2580518D01*
G01X623563Y-2572845D01*
G01X1337298Y-2572845D01*
G01X1337298Y-2688765D01*
G01X1339051Y-2699832D01*
G01X1344138Y-2709816D01*
G01X1352061Y-2717739D01*
G01X1362045Y-2722826D01*
G01X1373112Y-2724579D01*
G01X1535611Y-2724579D01*
G01X1546678Y-2722826D01*
G01X1556662Y-2717739D01*
G01X1564585Y-2709816D01*
G01X1569672Y-2699832D01*
G01X1571425Y-2688765D01*
G01X1571425Y-2572845D01*
G01X1571425Y-2572845D01*
G01X1569672Y-2561778D01*
G01X1564585Y-2551794D01*
G01X1556662Y-2543871D01*
G01X1546678Y-2538784D01*
G01X1535611Y-2537031D01*
G01X1373112Y-2537031D01*
G01X1362045Y-2538784D01*
G01X1352061Y-2543871D01*
G01X1344138Y-2551794D01*
G01X1339051Y-2561778D01*
G01X1337298Y-2572845D01*
G01X623563Y-2572845D01*
G01X648299Y-2547558D01*
G01X655810Y-2537581D01*
G01X660525Y-2526017D01*
G01X662133Y-2513633D01*
G01X662133Y-2053391D01*
G01X1352554Y-1362970D01*
G01X1368132Y-1360546D01*
G01X1382697Y-1354512D01*
G01X1395427Y-1345211D01*
G01X1401017Y-1345211D01*
G01X1406050Y-1344950D01*
G01X1405843Y-1349427D01*
G01X1405843Y-2330021D01*
G01X1373112Y-2330021D01*
G01X1362045Y-2331774D01*
G01X1352061Y-2336861D01*
G01X1344138Y-2344784D01*
G01X1339051Y-2354768D01*
G01X1337298Y-2365835D01*
G01X1337298Y-2481755D01*
G01X1339051Y-2492822D01*
G01X1344138Y-2502806D01*
G01X1352061Y-2510729D01*
G01X1362045Y-2515816D01*
G01X1373112Y-2517569D01*
G01X1535611Y-2517569D01*
G01X1546678Y-2515816D01*
G01X1556662Y-2510729D01*
G01X1564585Y-2502806D01*
G01X1569672Y-2492822D01*
G01X1571425Y-2481755D01*
G01X1571425Y-2365835D01*
G01X1569672Y-2354768D01*
G01X1564585Y-2344784D01*
G01X1556662Y-2336861D01*
G01X1546678Y-2331774D01*
G01X1535611Y-2330021D01*
G01X1502871Y-2330021D01*
G01X1502871Y-1369522D01*
G01X1672923Y-1199471D01*
G01X1687820Y-1197233D01*
G01X1701828Y-1191692D01*
G01X1714224Y-1183131D01*
G01X1724367Y-1171994D01*
G01X1731736Y-1158855D01*
G01X1735949Y-1144392D01*
G01X1736789Y-1129352D01*
G01X1734213Y-1114509D01*
G01X1728353Y-1100632D01*
G01X1719513Y-1088434D01*
G01X1708148Y-1078547D01*
G01X1694844Y-1071480D01*
G01X1751312Y-1015012D01*
G01X2680291Y-1015012D01*
G01X2447120Y-1248183D01*
G01X1956930Y-1248183D01*
G01X1956930Y-1209916D01*
G01X1955277Y-1197360D01*
G01X1950431Y-1185659D01*
G01X1942721Y-1175612D01*
G01X1896454Y-1129345D01*
G01X1886407Y-1121635D01*
G01X1874706Y-1116789D01*
G01X1862150Y-1115136D01*
G01X1855006Y-1115136D01*
G01X1843034Y-1106267D01*
G01X1829385Y-1100295D01*
G01X1814747Y-1097521D01*
G01X1799858Y-1098085D01*
G01X1785472Y-1101958D01*
G01X1772313Y-1108945D01*
G01X1761046Y-1118694D01*
G01X1752241Y-1130712D01*
G01X1746340Y-1144393D01*
G01X1743642Y-1159045D01*
G01X1744284Y-1173930D01*
G01X1748233Y-1188296D01*
G01X1755289Y-1201418D01*
G01X1765096Y-1212634D01*
G01X1777160Y-1221377D01*
G01X1790872Y-1227206D01*
G01X1805538Y-1229827D01*
G01X1820420Y-1229107D01*
G01X1834765Y-1225083D01*
G01X1847850Y-1217959D01*
G01X1859902Y-1230011D01*
G01X1859902Y-1276602D01*
G01X1650532Y-1485972D01*
G01X1642822Y-1496020D01*
G01X1637976Y-1507721D01*
G01X1636323Y-1520277D01*
G01X1636323Y-2510875D01*
G01X1637976Y-2523431D01*
G01X1642822Y-2535132D01*
G01X1650532Y-2545180D01*
G01X1694778Y-2589425D01*
G01X1694778Y-2688765D01*
G01X1696531Y-2699832D01*
G01X1701618Y-2709816D01*
G01X1709541Y-2717739D01*
G01X1719525Y-2722826D01*
G01X1730592Y-2724579D01*
G01X1893091Y-2724579D01*
G01X1904158Y-2722826D01*
G01X1914142Y-2717739D01*
G01X1922065Y-2709816D01*
G01X1927152Y-2699832D01*
G01X1928905Y-2688765D01*
G01X1928905Y-2572845D01*
G01X2650146Y-2572845D01*
G01X2650146Y-2688765D01*
G01X2651899Y-2699832D01*
G01X2656986Y-2709816D01*
G01X2664909Y-2717739D01*
G01X2674893Y-2722826D01*
G01X2685960Y-2724579D01*
G01X2848459Y-2724579D01*
G01X2859526Y-2722826D01*
G01X2869510Y-2717739D01*
G01X2877433Y-2709816D01*
G01X2882520Y-2699832D01*
G01X2884273Y-2688765D01*
G01X2884273Y-2572845D01*
G01X2884273Y-2572845D01*
G01X2882520Y-2561778D01*
G01X2877433Y-2551794D01*
G01X2869510Y-2543871D01*
G01X2859526Y-2538784D01*
G01X2848459Y-2537031D01*
G01X2685960Y-2537031D01*
G01X2674893Y-2538784D01*
G01X2664909Y-2543871D01*
G01X2656986Y-2551794D01*
G01X2651899Y-2561778D01*
G01X2650146Y-2572845D01*
G01X1928905Y-2572845D01*
G01X1927152Y-2561778D01*
G01X1922065Y-2551794D01*
G01X1914142Y-2543871D01*
G01X1904158Y-2538784D01*
G01X1893091Y-2537031D01*
G01X1779601Y-2537031D01*
G01X1760140Y-2517569D01*
G01X1893091Y-2517569D01*
G01X1904158Y-2515816D01*
G01X1914142Y-2510729D01*
G01X1922065Y-2502806D01*
G01X1927152Y-2492822D01*
G01X1928905Y-2481755D01*
G01X1928905Y-2365835D01*
G01X1927152Y-2354768D01*
G01X1922065Y-2344784D01*
G01X1914142Y-2336861D01*
G01X1904158Y-2331774D01*
G01X1893091Y-2330021D01*
G01X1733351Y-2330021D01*
G01X1733351Y-1540372D01*
G01X1928511Y-1345211D01*
G01X2413892Y-1345211D01*
G01X1868280Y-1890823D01*
G01X1853099Y-1893138D01*
G01X1838857Y-1898882D01*
G01X1826318Y-1907748D01*
G01X1816155Y-1919261D01*
G01X1808913Y-1932802D01*
G01X1804979Y-1947647D01*
G01X1804565Y-1962998D01*
G01X1807694Y-1978032D01*
G01X1814197Y-1991944D01*
G01X1823725Y-2003987D01*
G01X1835768Y-2013516D01*
G01X1849680Y-2020018D01*
G01X1864715Y-2023147D01*
G01X1880066Y-2022733D01*
G01X1894910Y-2018800D01*
G01X1908452Y-2011557D01*
G01X1919964Y-2001394D01*
G01X1928830Y-1988856D01*
G01X1934575Y-1974614D01*
G01X1936889Y-1959432D01*
G01X2710996Y-1185326D01*
G01X2716307Y-1195078D01*
G01X2723170Y-1203808D01*
G01X2723170Y-2330021D01*
G01X2685960Y-2330021D01*
G01X2674893Y-2331774D01*
G01X2664909Y-2336861D01*
G01X2656986Y-2344784D01*
G01X2651899Y-2354768D01*
G01X2650146Y-2365835D01*
G01X2650146Y-2481755D01*
G01X2651899Y-2492822D01*
G01X2656986Y-2502806D01*
G01X2664909Y-2510729D01*
G01X2674893Y-2515816D01*
G01X2685960Y-2517569D01*
G01X2848459Y-2517569D01*
G01X2859526Y-2515816D01*
G01X2869510Y-2510729D01*
G01X2877433Y-2502806D01*
G01X2882520Y-2492822D01*
G01X2884273Y-2481755D01*
G01X2884273Y-2365835D01*
G01X2882520Y-2354768D01*
G01X2877433Y-2344784D01*
G01X2869510Y-2336861D01*
G01X2859526Y-2331774D01*
G01X2848459Y-2330021D01*
G01X2820198Y-2330021D01*
G01X2820198Y-1203808D01*
G01X2827325Y-1194677D01*
G01X2832753Y-1184446D01*
G01X2930245Y-1281937D01*
G01X2915337Y-1286026D01*
G01X2901782Y-1293456D01*
G01X2890314Y-1303822D01*
G01X2881558Y-1316561D01*
G01X2875990Y-1330982D01*
G01X2873911Y-1346299D01*
G01X2875435Y-1361682D01*
G01X2880479Y-1376294D01*
G01X2888769Y-1389341D01*
G01X2899854Y-1400115D01*
G01X2913133Y-1408029D01*
G01X2927883Y-1412655D01*
G01X2943303Y-1413739D01*
G01X2958555Y-1411225D01*
G01X2972810Y-1405247D01*
G01X2985295Y-1396132D01*
G01X2995330Y-1384373D01*
G01X3002369Y-1370611D01*
G01X3069500Y-1370611D01*
G01X3069500Y-2216400D01*
G01X2956710Y-2329191D01*
G01X2949000Y-2339238D01*
G01X2944153Y-2350939D01*
G01X2942500Y-2363495D01*
G01X2942500Y-2490495D01*
G01X2944153Y-2503051D01*
G01X2949000Y-2514752D01*
G01X2956710Y-2524800D01*
G01X3007626Y-2575716D01*
G01X3007626Y-2688765D01*
G01X3009379Y-2699832D01*
G01X3014466Y-2709816D01*
G01X3022389Y-2717739D01*
G01X3032373Y-2722826D01*
G01X3043440Y-2724579D01*
G01X3205939Y-2724579D01*
G01X3217006Y-2722826D01*
G01X3226990Y-2717739D01*
G01X3234913Y-2709816D01*
G01X3240000Y-2699832D01*
G01X3241753Y-2688765D01*
G01X3241753Y-2572845D01*
G01X3962994Y-2572845D01*
G01X3962994Y-2688765D01*
G01X3964747Y-2699832D01*
G01X3969834Y-2709816D01*
G01X3977757Y-2717739D01*
G01X3987741Y-2722826D01*
G01X3998808Y-2724579D01*
G01X4161307Y-2724579D01*
G01X4172374Y-2722826D01*
G01X4182358Y-2717739D01*
G01X4190281Y-2709816D01*
G01X4195368Y-2699832D01*
G01X4197121Y-2688765D01*
G01X4197121Y-2572845D01*
G01X4197121Y-2572845D01*
G01X4195368Y-2561778D01*
G01X4190281Y-2551794D01*
G01X4182358Y-2543871D01*
G01X4172374Y-2538784D01*
G01X4161307Y-2537031D01*
G01X3998808Y-2537031D01*
G01X3987741Y-2538784D01*
G01X3977757Y-2543871D01*
G01X3969834Y-2551794D01*
G01X3964747Y-2561778D01*
G01X3962994Y-2572845D01*
G01X3241753Y-2572845D01*
G01X3240000Y-2561778D01*
G01X3234913Y-2551794D01*
G01X3226990Y-2543871D01*
G01X3217006Y-2538784D01*
G01X3205939Y-2537031D01*
G01X3106159Y-2537031D01*
G01X3086697Y-2517569D01*
G01X3205939Y-2517569D01*
G01X3217006Y-2515816D01*
G01X3226990Y-2510729D01*
G01X3234913Y-2502806D01*
G01X3240000Y-2492822D01*
G01X3241753Y-2481755D01*
G01X3241753Y-2365835D01*
G01X3240000Y-2354768D01*
G01X3234913Y-2344784D01*
G01X3226990Y-2336861D01*
G01X3217006Y-2331774D01*
G01X3205939Y-2330021D01*
G01X3093098Y-2330021D01*
G01X3152318Y-2270800D01*
G01X3160028Y-2260753D01*
G01X3164875Y-2249052D01*
G01X3166528Y-2236496D01*
G01X3166528Y-1370611D01*
G01X3806754Y-1370611D01*
G01X3802039Y-1385033D01*
G01X3800724Y-1400148D01*
G01X3802880Y-1415167D01*
G01X3808393Y-1429303D01*
G01X3816975Y-1441815D01*
G01X3828177Y-1452050D01*
G01X3841411Y-1459470D01*
G01X3855986Y-1463688D01*
G01X3871138Y-1464483D01*
G01X3886073Y-1461813D01*
G01X3900012Y-1455818D01*
G01X3912222Y-1446811D01*
G01X3948802Y-1446811D01*
G01X3959422Y-1454875D01*
G01X3971441Y-1460652D01*
G01X3984373Y-1463907D01*
G01X3997694Y-1464509D01*
G01X4010866Y-1462434D01*
G01X3971117Y-1502183D01*
G01X3680823Y-1502183D01*
G01X3668451Y-1493085D01*
G01X3654319Y-1487076D01*
G01X3639183Y-1484479D01*
G01X3623856Y-1485433D01*
G01X3609160Y-1489887D01*
G01X3595882Y-1497603D01*
G01X3584735Y-1508165D01*
G01X3576316Y-1521008D01*
G01X3571077Y-1535444D01*
G01X3569299Y-1550697D01*
G01X3571077Y-1565950D01*
G01X3576316Y-1580386D01*
G01X3584735Y-1593229D01*
G01X3595882Y-1603791D01*
G01X3609160Y-1611506D01*
G01X3623856Y-1615960D01*
G01X3639183Y-1616915D01*
G01X3654319Y-1614318D01*
G01X3668451Y-1608309D01*
G01X3680823Y-1599211D01*
G01X3743554Y-1599211D01*
G01X3739290Y-1611587D01*
G01X3737540Y-1624560D01*
G01X3656717Y-1705383D01*
G01X3626013Y-1705383D01*
G01X3613456Y-1707036D01*
G01X3601756Y-1711882D01*
G01X3591708Y-1719592D01*
G01X3540908Y-1770392D01*
G01X3533198Y-1780439D01*
G01X3528352Y-1792140D01*
G01X3526699Y-1804696D01*
G01X3526699Y-1906296D01*
G01X3528352Y-1918853D01*
G01X3533198Y-1930553D01*
G01X3540908Y-1940601D01*
G01X3850470Y-2250162D01*
G01X3843251Y-2264197D01*
G01X3839553Y-2279540D01*
G01X3839586Y-2295323D01*
G01X3843347Y-2310651D01*
G01X3850624Y-2324656D01*
G01X3861004Y-2336544D01*
G01X3873900Y-2345644D01*
G01X3888580Y-2351438D01*
G01X3904214Y-2353599D01*
G01X3919916Y-2352004D01*
G01X3934796Y-2346744D01*
G01X3948012Y-2338116D01*
G01X3957063Y-2344497D01*
G01X3967049Y-2349282D01*
G01X3964023Y-2357314D01*
G01X3962994Y-2365835D01*
G01X3962994Y-2481755D01*
G01X3964747Y-2492822D01*
G01X3969834Y-2502806D01*
G01X3977757Y-2510729D01*
G01X3987741Y-2515816D01*
G01X3998808Y-2517569D01*
G01X4161307Y-2517569D01*
G01X4172374Y-2515816D01*
G01X4182358Y-2510729D01*
G01X4190281Y-2502806D01*
G01X4195368Y-2492822D01*
G01X4197121Y-2481755D01*
G01X4197121Y-2365835D01*
G01X4195368Y-2354768D01*
G01X4190281Y-2344784D01*
G01X4182358Y-2336861D01*
G01X4172374Y-2331774D01*
G01X4161307Y-2330021D01*
G01X4128576Y-2330021D01*
G01X4128576Y-2055311D01*
G01X4263297Y-1920589D01*
G01X4263297Y-2490495D01*
G01X4264951Y-2503051D01*
G01X4269797Y-2514752D01*
G01X4277507Y-2524800D01*
G01X4320792Y-2568084D01*
G01X4320474Y-2572845D01*
G01X4320474Y-2688765D01*
G01X4322227Y-2699832D01*
G01X4327314Y-2709816D01*
G01X4335237Y-2717739D01*
G01X4345221Y-2722826D01*
G01X4356288Y-2724579D01*
G01X4518787Y-2724579D01*
G01X4529854Y-2722826D01*
G01X4539838Y-2717739D01*
G01X4547761Y-2709816D01*
G01X4552848Y-2699832D01*
G01X4554601Y-2688765D01*
G01X4554601Y-2572845D01*
G01X5275842Y-2572845D01*
G01X5275842Y-2688765D01*
G01X5277595Y-2699832D01*
G01X5282682Y-2709816D01*
G01X5290605Y-2717739D01*
G01X5300589Y-2722826D01*
G01X5311656Y-2724579D01*
G01X5474155Y-2724579D01*
G01X5485222Y-2722826D01*
G01X5495206Y-2717739D01*
G01X5503129Y-2709816D01*
G01X5508216Y-2699832D01*
G01X5509969Y-2688765D01*
G01X5509969Y-2572845D01*
G01X5509969Y-2572845D01*
G01X5508216Y-2561778D01*
G01X5503129Y-2551794D01*
G01X5495206Y-2543871D01*
G01X5485222Y-2538784D01*
G01X5474155Y-2537031D01*
G01X5311656Y-2537031D01*
G01X5300589Y-2538784D01*
G01X5290605Y-2543871D01*
G01X5282682Y-2551794D01*
G01X5277595Y-2561778D01*
G01X5275842Y-2572845D01*
G01X4554601Y-2572845D01*
G01X4552848Y-2561778D01*
G01X4547761Y-2551794D01*
G01X4539838Y-2543871D01*
G01X4529854Y-2538784D01*
G01X4518787Y-2537031D01*
G01X4426956Y-2537031D01*
G01X4407495Y-2517569D01*
G01X4518787Y-2517569D01*
G01X4529854Y-2515816D01*
G01X4539838Y-2510729D01*
G01X4547761Y-2502806D01*
G01X4552848Y-2492822D01*
G01X4554601Y-2481755D01*
G01X4554601Y-2365835D01*
G01X4552848Y-2354768D01*
G01X4547761Y-2344784D01*
G01X4539838Y-2336861D01*
G01X4529854Y-2331774D01*
G01X4518787Y-2330021D01*
G01X4360325Y-2330021D01*
G01X4360325Y-1926391D01*
G01X4618947Y-1667770D01*
G01X4634226Y-1665428D01*
G01X4648548Y-1659613D01*
G01X4661135Y-1650641D01*
G01X4671303Y-1638998D01*
G01X4737738Y-1705433D01*
G01X4740052Y-1720614D01*
G01X4745796Y-1734856D01*
G01X4754662Y-1747395D01*
G01X4766175Y-1757558D01*
G01X4779716Y-1764800D01*
G01X4794561Y-1768734D01*
G01X4809912Y-1769147D01*
G01X4824946Y-1766019D01*
G01X4838858Y-1759516D01*
G01X4850901Y-1749988D01*
G01X4860430Y-1737945D01*
G01X4866933Y-1724033D01*
G01X4870061Y-1708998D01*
G01X4869648Y-1693647D01*
G01X4865714Y-1678803D01*
G01X4858472Y-1665261D01*
G01X4848308Y-1653749D01*
G01X4835770Y-1644883D01*
G01X4821528Y-1639138D01*
G01X4806347Y-1636824D01*
G01X4540134Y-1370611D01*
G01X4825115Y-1370611D01*
G01X4836306Y-1381802D01*
G01X4846353Y-1389512D01*
G01X4858054Y-1394358D01*
G01X4870610Y-1396011D01*
G01X5087854Y-1396011D01*
G01X5094751Y-1409558D01*
G01X5104551Y-1421178D01*
G01X5116740Y-1430261D01*
G01X5130676Y-1436330D01*
G01X5145629Y-1439066D01*
G01X5160812Y-1438325D01*
G01X5175427Y-1434147D01*
G01X5188707Y-1426749D01*
G01X5199954Y-1416522D01*
G01X5208576Y-1404003D01*
G01X5214120Y-1389850D01*
G01X5216296Y-1374805D01*
G01X5214989Y-1359661D01*
G01X5210268Y-1345211D01*
G01X5565656Y-1345211D01*
G01X5358605Y-1552262D01*
G01X5350895Y-1562310D01*
G01X5346048Y-1574010D01*
G01X5344395Y-1586567D01*
G01X5344395Y-2330021D01*
G01X5311656Y-2330021D01*
G01X5300589Y-2331774D01*
G01X5290605Y-2336861D01*
G01X5282682Y-2344784D01*
G01X5277595Y-2354768D01*
G01X5275842Y-2365835D01*
G01X5275842Y-2481755D01*
G01X5277595Y-2492822D01*
G01X5282682Y-2502806D01*
G01X5290605Y-2510729D01*
G01X5300589Y-2515816D01*
G01X5311656Y-2517569D01*
G01X5474155Y-2517569D01*
G01X5485222Y-2515816D01*
G01X5495206Y-2510729D01*
G01X5503129Y-2502806D01*
G01X5508216Y-2492822D01*
G01X5509969Y-2481755D01*
G01X5509969Y-2365835D01*
G01X5508216Y-2354768D01*
G01X5503129Y-2344784D01*
G01X5495206Y-2336861D01*
G01X5485222Y-2331774D01*
G01X5474155Y-2330021D01*
G01X5441423Y-2330021D01*
G01X5441423Y-1606662D01*
G01X5848615Y-1199471D01*
G01X5861123Y-1197829D01*
G01X5873094Y-1193848D01*
G01X5873094Y-2419600D01*
G01X5867449Y-2425246D01*
G01X5867449Y-2365835D01*
G01X5865696Y-2354768D01*
G01X5860609Y-2344784D01*
G01X5852685Y-2336861D01*
G01X5842702Y-2331774D01*
G01X5831635Y-2330021D01*
G01X5669135Y-2330021D01*
G01X5658068Y-2331774D01*
G01X5648085Y-2336861D01*
G01X5640161Y-2344784D01*
G01X5635074Y-2354768D01*
G01X5633321Y-2365835D01*
G01X5633321Y-2481755D01*
G01X5635074Y-2492822D01*
G01X5640161Y-2502806D01*
G01X5648085Y-2510729D01*
G01X5658068Y-2515816D01*
G01X5669135Y-2517569D01*
G01X5775125Y-2517569D01*
G01X5755663Y-2537031D01*
G01X5669135Y-2537031D01*
G01X5658068Y-2538784D01*
G01X5648085Y-2543871D01*
G01X5640161Y-2551794D01*
G01X5635074Y-2561778D01*
G01X5633321Y-2572845D01*
G01X5633321Y-2688765D01*
G01X5635074Y-2699832D01*
G01X5640161Y-2709816D01*
G01X5648085Y-2717739D01*
G01X5658068Y-2722826D01*
G01X5669135Y-2724579D01*
G01X5831635Y-2724579D01*
G01X5842702Y-2722826D01*
G01X5852685Y-2717739D01*
G01X5860609Y-2709816D01*
G01X5865696Y-2699832D01*
G01X5867449Y-2688765D01*
G01X6588690Y-2688765D01*
G01X6590443Y-2699832D01*
G01X6595530Y-2709816D01*
G01X6603453Y-2717739D01*
G01X6613437Y-2722826D01*
G01X6624504Y-2724579D01*
G01X6787003Y-2724579D01*
G01X6798070Y-2722826D01*
G01X6808054Y-2717739D01*
G01X6815977Y-2709816D01*
G01X6821064Y-2699832D01*
G01X6822817Y-2688765D01*
G01X6822817Y-2572845D01*
G01X6822817Y-2572845D01*
G01X6821064Y-2561778D01*
G01X6815977Y-2551794D01*
G01X6808054Y-2543871D01*
G01X6798070Y-2538784D01*
G01X6787003Y-2537031D01*
G01X6624504Y-2537031D01*
G01X6613437Y-2538784D01*
G01X6603453Y-2543871D01*
G01X6595530Y-2551794D01*
G01X6590443Y-2561778D01*
G01X6588690Y-2572845D01*
G01X6588690Y-2688765D01*
G01X5867449Y-2688765D01*
G01X5867449Y-2572845D01*
G01X5866251Y-2563661D01*
G01X5955913Y-2474000D01*
G01X5963622Y-2463952D01*
G01X5968469Y-2452251D01*
G01X5970122Y-2439695D01*
G01X5970122Y-1118898D01*
G01X5968469Y-1106341D01*
G01X5963622Y-1094641D01*
G01X5955913Y-1084593D01*
G01X5905113Y-1033793D01*
G01X5895065Y-1026084D01*
G01X5883365Y-1021237D01*
G01X5870808Y-1019584D01*
G01X5841602Y-1019584D01*
G01X5842313Y-1004482D01*
G01X5839584Y-989612D01*
G01X6808091Y-989612D01*
G01X6892349Y-1073870D01*
G01X6880401Y-1081535D01*
G01X6870357Y-1091568D01*
G01X6862680Y-1103508D01*
G01X6857719Y-1116809D01*
G01X6855703Y-1130861D01*
G01X6671452Y-1315113D01*
G01X6663742Y-1325160D01*
G01X6658896Y-1336861D01*
G01X6657243Y-1349417D01*
G01X6657243Y-2330021D01*
G01X6624504Y-2330021D01*
G01X6613437Y-2331774D01*
G01X6603453Y-2336861D01*
G01X6595530Y-2344784D01*
G01X6590443Y-2354768D01*
G01X6588690Y-2365835D01*
G01X6588690Y-2481755D01*
G01X6590443Y-2492822D01*
G01X6595530Y-2502806D01*
G01X6603453Y-2510729D01*
G01X6613437Y-2515816D01*
G01X6624504Y-2517569D01*
G01X6787003Y-2517569D01*
G01X6798070Y-2515816D01*
G01X6808054Y-2510729D01*
G01X6815977Y-2502806D01*
G01X6821064Y-2492822D01*
G01X6822817Y-2481755D01*
G01X6822817Y-2365835D01*
G01X6821064Y-2354768D01*
G01X6815977Y-2344784D01*
G01X6808054Y-2336861D01*
G01X6798070Y-2331774D01*
G01X6787003Y-2330021D01*
G01X6754271Y-2330021D01*
G01X6754271Y-1369512D01*
G01X6924313Y-1199471D01*
G01X6932859Y-1198613D01*
G01X6941223Y-1196657D01*
G01X6945891Y-1210435D01*
G01X6953450Y-1222863D01*
G01X6963537Y-1233345D01*
G01X6975667Y-1241375D01*
G01X6989256Y-1246566D01*
G01X7003650Y-1248670D01*
G01X7135272Y-1380292D01*
G01X7135272Y-2330021D01*
G01X6981983Y-2330021D01*
G01X6970916Y-2331774D01*
G01X6960933Y-2336861D01*
G01X6953009Y-2344784D01*
G01X6947922Y-2354768D01*
G01X6946169Y-2365835D01*
G01X6946169Y-2481755D01*
G01X6947922Y-2492822D01*
G01X6953009Y-2502806D01*
G01X6960933Y-2510729D01*
G01X6970916Y-2515816D01*
G01X6981983Y-2517569D01*
G01X7107872Y-2517569D01*
G01X7088411Y-2537031D01*
G01X6981983Y-2537031D01*
G01X6970916Y-2538784D01*
G01X6960933Y-2543871D01*
G01X6953009Y-2551794D01*
G01X6947922Y-2561778D01*
G01X6946169Y-2572845D01*
G01X6946169Y-2688765D01*
G01X6947922Y-2699832D01*
G01X6953009Y-2709816D01*
G01X6960933Y-2717739D01*
G01X6970916Y-2722826D01*
G01X6981983Y-2724579D01*
G01X7144483Y-2724579D01*
G01X7155550Y-2722826D01*
G01X7165533Y-2717739D01*
G01X7173457Y-2709816D01*
G01X7178544Y-2699832D01*
G01X7180297Y-2688765D01*
G01X7180297Y-2582363D01*
G01X7218090Y-2544570D01*
G01X7225800Y-2534522D01*
G01X7230647Y-2522821D01*
G01X7232300Y-2510265D01*
G01X7232300Y-1360197D01*
G01X7231225Y-1350044D01*
G01X7228050Y-1340341D01*
G01X7236301Y-1348592D01*
G01X7246348Y-1356302D01*
G01X7258049Y-1361148D01*
G01X7270605Y-1362801D01*
G01X7771495Y-1362801D01*
G01X7784224Y-1372102D01*
G01X7798790Y-1378136D01*
G01X7814368Y-1380560D01*
G01X7857090Y-1423282D01*
G01X7857090Y-2490535D01*
G01X7858743Y-2503091D01*
G01X7863590Y-2514792D01*
G01X7871300Y-2524840D01*
G01X7904666Y-2558206D01*
G01X7902329Y-2565360D01*
G01X7901538Y-2572845D01*
G01X7901538Y-2688765D01*
G01X7903291Y-2699832D01*
G01X7908378Y-2709816D01*
G01X7916301Y-2717739D01*
G01X7926285Y-2722826D01*
G01X7937352Y-2724579D01*
G01X8099851Y-2724579D01*
G01X8110918Y-2722826D01*
G01X8120902Y-2717739D01*
G01X8128825Y-2709816D01*
G01X8133912Y-2699832D01*
G01X8135665Y-2688765D01*
G01X8135665Y-2589849D01*
G01X8259018Y-2589849D01*
G01X8259018Y-2688765D01*
G01X8260770Y-2699832D01*
G01X8265857Y-2709816D01*
G01X8273781Y-2717739D01*
G01X8283764Y-2722826D01*
G01X8294832Y-2724579D01*
G01X8457331Y-2724579D01*
G01X8459316Y-2724524D01*
G01X8451947Y-2737700D01*
G01X8441705Y-2748791D01*
G01X8429155Y-2757183D01*
G01X8414992Y-2762411D01*
G01X8400000Y-2764186D01*
G01X100000Y-2764186D01*
G37*
G36*
G01X8457331Y-2517569D02*
G01X8464186Y-2516907D01*
G01X8464186Y-2537693D01*
G01X8457331Y-2537031D01*
G01X8350908Y-2537031D01*
G01X8331447Y-2517569D01*
G01X8457331Y-2517569D01*
G37*
G54D10*
G01X100000Y-2764186D02*
G02X38072Y-2716875I0J64186D01*
G03X60264Y-2724579I22192J28110D01*
G01X222763Y-2724579D01*
G03X258577Y-2688765I0J35814D01*
G01X258577Y-2572845D01*
G03X222763Y-2537031I-35814J0D01*
G01X60264Y-2537031D01*
G03X35814Y-2546675I0J-35814D01*
G01X35814Y-2507925D01*
G03X60264Y-2517569I24450J26169D01*
G01X222763Y-2517569D01*
G03X258577Y-2481755I0J35814D01*
G01X258577Y-2365835D01*
G03X222763Y-2330021I-35814J0D01*
G01X190024Y-2330021D01*
G01X190024Y-1369522D01*
G01X360076Y-1199471D01*
G03X404630Y-1086307I-2336J66273D01*
G03X291467Y-1130861I-46891J-46891D01*
G01X107205Y-1315123D01*
G03X92996Y-1349427I34305J-34305D01*
G01X92996Y-2330021D01*
G01X60264Y-2330021D01*
G03X35814Y-2339665I0J-35814D01*
G01X35814Y-100000D01*
G02X100000Y-35814I64186J0D01*
G01X8400000Y-35814D01*
G02X8464186Y-100000I0J-64186D01*
G01X8464186Y-2330683D01*
G03X8457331Y-2330021I-6855J-35152D01*
G01X8294832Y-2330021D01*
G03X8259018Y-2365835I0J-35814D01*
G01X8259018Y-2481755D01*
G03X8260770Y-2492821I35814J0D01*
G01X8133913Y-2492821D01*
G03X8135665Y-2481755I-34062J11066D01*
G01X8135665Y-2365835D01*
G03X8099851Y-2330021I-35814J0D01*
G01X8067118Y-2330021D01*
G01X8067118Y-1369512D01*
G01X8237160Y-1199471D01*
G03X8281715Y-1086307I-2336J66273D01*
G03X8168551Y-1130861I-46891J-46891D01*
G01X7984299Y-1315113D01*
G03X7970090Y-1349417I34305J-34305D01*
G01X7970090Y-2330021D01*
G01X7954118Y-2330021D01*
G01X7954118Y-1403187D01*
G03X7939909Y-1368882I-48514J0D01*
G01X7882977Y-1311951D01*
G03X7771495Y-1265773I-66273J-2336D01*
G01X7290701Y-1265773D01*
G01X6873111Y-848184D01*
G03X6838806Y-833974I-34305J-34305D01*
G01X5121875Y-833974D01*
G03X5080112Y-751367I-63265J19876D01*
G03X4996455Y-790984I-21502J-62731D01*
G01X4652725Y-790984D01*
G03X4681314Y-719043I-35744J55856D01*
G03X4714285Y-659413I-33304J57345D01*
G01X7124966Y-659413D01*
G03X7132657Y-658799I0J48514D01*
G03X7201810Y-563326I9969J65560D01*
G03X7083927Y-562385I-59184J-29913D01*
G01X5302388Y-562385D01*
G03X5302590Y-514753I-61788J24078D01*
G01X5627744Y-514753D01*
G01X5638934Y-525944D01*
G03X5673239Y-540153I34305J34305D01*
G01X5883761Y-540153D01*
G03X5918066Y-525944I0J48514D01*
G01X6107056Y-336953D01*
G01X6724367Y-336953D01*
G03X6835890Y-288439I45210J48514D01*
G03X6724367Y-239925I-66314J0D01*
G01X6086961Y-239925D01*
G03X6052656Y-254135I0J-48514D01*
G01X5863666Y-443125D01*
G01X5830336Y-443125D01*
G03X5808997Y-361747I-60258J27686D01*
G03X5725019Y-366785I-38919J-53692D01*
G01X4234610Y-366785D01*
G03X4257619Y-292948I-39928J52946D01*
G03X4317013Y-71849I-7619J120573D01*
G03X4135773Y-211722I-67013J-100525D01*
G01X4115326Y-191275D01*
G03X4009204Y-52284I-119326J18901D01*
G03X3875418Y-164896I-13204J-120090D01*
G01X3860771Y-150249D01*
G03X3692613Y-62116I-118771J-22126D01*
G03X3646415Y-246262I49387J-110259D01*
G01X3604505Y-204352D01*
G03X3508739Y-53354I-116505J31978D01*
G03X3367546Y-163063I-20739J-119020D01*
G01X3354814Y-150331D01*
G01X3354814Y-87374D01*
G03X3319000Y-51560I-35814J0D01*
G01X3149000Y-51560D01*
G03X3113186Y-87374I0J-35814D01*
G01X3113186Y-257374D01*
G03X3149000Y-293188I35814J0D01*
G01X3319000Y-293188D01*
G03X3346986Y-279722I0J35814D01*
G01X3483868Y-416604D01*
G03X3518173Y-430813I34305J34305D01*
G01X3955277Y-430813D01*
G01X4086848Y-562385D01*
G01X1518227Y-562385D01*
G03X1406703Y-610899I-45210J-48514D01*
G03X1518227Y-659413I66314J0D01*
G01X2371130Y-659413D01*
G03X2394982Y-738951I61455J-24916D01*
G03X2477795Y-732843I37603J54622D01*
G01X2661708Y-732843D01*
G03X2680540Y-816134I58907J-30456D01*
G03X2765825Y-811812I40074J52835D01*
G01X2929119Y-811812D01*
G01X2959141Y-841835D01*
G03X3072305Y-886389I66273J2336D01*
G03X3027750Y-773226I-46891J46891D01*
G01X2987367Y-732843D01*
G01X4114287Y-732843D01*
G01X4150877Y-769433D01*
G03X4185182Y-783643I34305J34305D01*
G01X4571771Y-783643D01*
G03X4581236Y-790984I45210J48514D01*
G01X3661613Y-790984D01*
G03X3627308Y-805194I0J-48514D01*
G01X3514518Y-917984D01*
G01X1731216Y-917984D01*
G03X1696912Y-932194I0J-48514D01*
G01X1387350Y-1241755D01*
G03X1283944Y-1294361I-37133J-54942D01*
G01X579314Y-1998991D01*
G03X565105Y-2033296I34305J-34305D01*
G01X565105Y-2330021D01*
G01X417744Y-2330021D01*
G03X381930Y-2365835I0J-35814D01*
G01X381930Y-2481755D01*
G03X417744Y-2517569I35814J0D01*
G01X541902Y-2517569D01*
G01X522864Y-2537031D01*
G01X417744Y-2537031D01*
G03X381930Y-2572845I0J-35814D01*
G01X381930Y-2688765D01*
G03X417744Y-2724579I35814J0D01*
G01X580243Y-2724579D01*
G03X616057Y-2688765I0J35814D01*
G01X616057Y-2580518D01*
G01X648299Y-2547558D01*
G03X662133Y-2513633I-34680J33925D01*
G01X662133Y-2053391D01*
G01X1352554Y-1362970D01*
G03X1395427Y-1345211I-2336J66273D01*
G01X1401017Y-1345211D01*
G03X1406050Y-1344950I0J48514D01*
G03X1405843Y-1349427I48307J-4478D01*
G01X1405843Y-2330021D01*
G01X1373112Y-2330021D01*
G03X1337298Y-2365835I0J-35814D01*
G01X1337298Y-2481755D01*
G03X1373112Y-2517569I35814J0D01*
G01X1535611Y-2517569D01*
G03X1571425Y-2481755I0J35814D01*
G01X1571425Y-2365835D01*
G03X1535611Y-2330021I-35814J0D01*
G01X1502871Y-2330021D01*
G01X1502871Y-1369522D01*
G01X1672923Y-1199471D01*
G03X1735949Y-1144392I-2336J66273D01*
G03X1694844Y-1071480I-65362J11195D01*
G01X1751312Y-1015012D01*
G01X2680291Y-1015012D01*
G01X2447120Y-1248183D01*
G01X1956930Y-1248183D01*
G01X1956930Y-1209916D01*
G03X1942721Y-1175612I-48514J0D01*
G01X1896454Y-1129345D01*
G03X1862150Y-1115136I-34305J-34305D01*
G01X1855006Y-1115136D01*
G03X1743642Y-1159045I-45210J-48514D01*
G03X1847850Y-1217959I66154J-4604D01*
G01X1859902Y-1230011D01*
G01X1859902Y-1276602D01*
G01X1650532Y-1485972D01*
G03X1636323Y-1520277I34305J-34305D01*
G01X1636323Y-2510875D01*
G03X1650532Y-2545180I48514J0D01*
G01X1694778Y-2589425D01*
G01X1694778Y-2688765D01*
G03X1730592Y-2724579I35814J0D01*
G01X1893091Y-2724579D01*
G03X1928905Y-2688765I0J35814D01*
G01X1928905Y-2572845D01*
G03X1893091Y-2537031I-35814J0D01*
G01X1779601Y-2537031D01*
G01X1760140Y-2517569D01*
G01X1893091Y-2517569D01*
G03X1928905Y-2481755I0J35814D01*
G01X1928905Y-2365835D01*
G03X1893091Y-2330021I-35814J0D01*
G01X1733351Y-2330021D01*
G01X1733351Y-1540372D01*
G01X1928511Y-1345211D01*
G01X2413892Y-1345211D01*
G01X1868280Y-1890823D01*
G03X1823725Y-2003987I2336J-66273D01*
G03X1936889Y-1959432I46891J46891D01*
G01X2710996Y-1185326D01*
G03X2723170Y-1203808I60689J26728D01*
G01X2723170Y-2330021D01*
G01X2685960Y-2330021D01*
G03X2650146Y-2365835I0J-35814D01*
G01X2650146Y-2481755D01*
G03X2685960Y-2517569I35814J0D01*
G01X2848459Y-2517569D01*
G03X2884273Y-2481755I0J35814D01*
G01X2884273Y-2365835D01*
G03X2848459Y-2330021I-35814J0D01*
G01X2820198Y-2330021D01*
G01X2820198Y-1203808D01*
G03X2832753Y-1184446I-48514J45210D01*
G01X2930245Y-1281937D01*
G03X2888769Y-1389341I9970J-65560D01*
G03X3002369Y-1370611I51445J41844D01*
G01X3069500Y-1370611D01*
G01X3069500Y-2216400D01*
G01X2956710Y-2329191D01*
G03X2942500Y-2363495I34305J-34305D01*
G01X2942500Y-2490495D01*
G03X2956710Y-2524800I48514J0D01*
G01X3007626Y-2575716D01*
G01X3007626Y-2688765D01*
G03X3043440Y-2724579I35814J0D01*
G01X3205939Y-2724579D01*
G03X3241753Y-2688765I0J35814D01*
G01X3241753Y-2572845D01*
G03X3205939Y-2537031I-35814J0D01*
G01X3106159Y-2537031D01*
G01X3086697Y-2517569D01*
G01X3205939Y-2517569D01*
G03X3241753Y-2481755I0J35814D01*
G01X3241753Y-2365835D01*
G03X3205939Y-2330021I-35814J0D01*
G01X3093098Y-2330021D01*
G01X3152318Y-2270800D01*
G03X3166528Y-2236496I-34305J34305D01*
G01X3166528Y-1370611D01*
G01X3806754Y-1370611D01*
G03X3828177Y-1452050I60258J-27686D01*
G03X3912222Y-1446811I38836J53752D01*
G01X3948802Y-1446811D01*
G03X4010866Y-1462434I45210J48514D01*
G01X3971117Y-1502183D01*
G01X3680823Y-1502183D01*
G03X3569299Y-1550697I-45210J-48514D01*
G03X3680823Y-1599211I66314J0D01*
G01X3743554Y-1599211D01*
G03X3737540Y-1624560I60258J-27686D01*
G01X3656717Y-1705383D01*
G01X3626013Y-1705383D01*
G03X3591708Y-1719592I0J-48514D01*
G01X3540908Y-1770392D01*
G03X3526699Y-1804696I34305J-34305D01*
G01X3526699Y-1906296D01*
G03X3540908Y-1940601I48514J0D01*
G01X3850470Y-2250162D01*
G03X3861004Y-2336544I54942J-37133D01*
G03X3948012Y-2338116I44408J49249D01*
G03X3967049Y-2349282I42600J50821D01*
G03X3962994Y-2365835I31759J-16553D01*
G01X3962994Y-2481755D01*
G03X3998808Y-2517569I35814J0D01*
G01X4161307Y-2517569D01*
G03X4197121Y-2481755I0J35814D01*
G01X4197121Y-2365835D01*
G03X4161307Y-2330021I-35814J0D01*
G01X4128576Y-2330021D01*
G01X4128576Y-2055311D01*
G01X4263297Y-1920589D01*
G01X4263297Y-2490495D01*
G03X4277507Y-2524800I48514J0D01*
G01X4320792Y-2568084D01*
G03X4320474Y-2572845I35496J-4761D01*
G01X4320474Y-2688765D01*
G03X4356288Y-2724579I35814J0D01*
G01X4518787Y-2724579D01*
G03X4554601Y-2688765I0J35814D01*
G01X4554601Y-2572845D01*
G03X4518787Y-2537031I-35814J0D01*
G01X4426956Y-2537031D01*
G01X4407495Y-2517569D01*
G01X4518787Y-2517569D01*
G03X4554601Y-2481755I0J35814D01*
G01X4554601Y-2365835D01*
G03X4518787Y-2330021I-35814J0D01*
G01X4360325Y-2330021D01*
G01X4360325Y-1926391D01*
G01X4618947Y-1667770D01*
G03X4671303Y-1638998I-2336J66273D01*
G01X4737738Y-1705433D01*
G03X4850901Y-1749988I66273J2336D01*
G03X4806347Y-1636824I-46891J46891D01*
G01X4540134Y-1370611D01*
G01X4825115Y-1370611D01*
G01X4836306Y-1381802D01*
G03X4870610Y-1396011I34305J34305D01*
G01X5087854Y-1396011D01*
G03X5175427Y-1434147I62155J23114D01*
G03X5210268Y-1345211I-25418J61249D01*
G01X5565656Y-1345211D01*
G01X5358605Y-1552262D01*
G03X5344395Y-1586567I34305J-34305D01*
G01X5344395Y-2330021D01*
G01X5311656Y-2330021D01*
G03X5275842Y-2365835I0J-35814D01*
G01X5275842Y-2481755D01*
G03X5311656Y-2517569I35814J0D01*
G01X5474155Y-2517569D01*
G03X5509969Y-2481755I0J35814D01*
G01X5509969Y-2365835D01*
G03X5474155Y-2330021I-35814J0D01*
G01X5441423Y-2330021D01*
G01X5441423Y-1606662D01*
G01X5848615Y-1199471D01*
G03X5873094Y-1193848I-2336J66273D01*
G01X5873094Y-2419600D01*
G01X5867449Y-2425246D01*
G01X5867449Y-2365835D01*
G03X5831635Y-2330021I-35814J0D01*
G01X5669135Y-2330021D01*
G03X5633321Y-2365835I0J-35814D01*
G01X5633321Y-2481755D01*
G03X5669135Y-2517569I35814J0D01*
G01X5775125Y-2517569D01*
G01X5755663Y-2537031D01*
G01X5669135Y-2537031D01*
G03X5633321Y-2572845I0J-35814D01*
G01X5633321Y-2688765D01*
G03X5669135Y-2724579I35814J0D01*
G01X5831635Y-2724579D01*
G03X5867449Y-2688765I0J35814D01*
G01X5867449Y-2572845D01*
G03X5866251Y-2563661I-35814J0D01*
G01X5955913Y-2474000D01*
G03X5970122Y-2439695I-34305J34305D01*
G01X5970122Y-1118898D01*
G03X5955913Y-1084593I-48514J0D01*
G01X5905113Y-1033793D01*
G03X5870808Y-1019584I-34305J-34305D01*
G01X5841602Y-1019584D01*
G03X5839584Y-989612I-65454J10646D01*
G01X6808091Y-989612D01*
G01X6892349Y-1073870D01*
G03X6855703Y-1130861I29627J-59328D01*
G01X6671452Y-1315113D01*
G03X6657243Y-1349417I34305J-34305D01*
G01X6657243Y-2330021D01*
G01X6624504Y-2330021D01*
G03X6588690Y-2365835I0J-35814D01*
G01X6588690Y-2481755D01*
G03X6624504Y-2517569I35814J0D01*
G01X6787003Y-2517569D01*
G03X6822817Y-2481755I0J35814D01*
G01X6822817Y-2365835D01*
G03X6787003Y-2330021I-35814J0D01*
G01X6754271Y-2330021D01*
G01X6754271Y-1369512D01*
G01X6924313Y-1199471D01*
G03X6941223Y-1196657I-2336J66273D01*
G03X7003650Y-1248670I64763J14259D01*
G01X7135272Y-1380292D01*
G01X7135272Y-2330021D01*
G01X6981983Y-2330021D01*
G03X6946169Y-2365835I0J-35814D01*
G01X6946169Y-2481755D01*
G03X6981983Y-2517569I35814J0D01*
G01X7107872Y-2517569D01*
G01X7088411Y-2537031D01*
G01X6981983Y-2537031D01*
G03X6946169Y-2572845I0J-35814D01*
G01X6946169Y-2688765D01*
G03X6981983Y-2724579I35814J0D01*
G01X7144483Y-2724579D01*
G03X7180297Y-2688765I0J35814D01*
G01X7180297Y-2582363D01*
G01X7218090Y-2544570D01*
G03X7232300Y-2510265I-34305J34305D01*
G01X7232300Y-1360197D01*
G03X7228050Y-1340341I-48514J0D01*
G01X7236301Y-1348592D01*
G03X7270605Y-1362801I34305J34305D01*
G01X7771495Y-1362801D01*
G03X7814368Y-1380560I45210J48514D01*
G01X7857090Y-1423282D01*
G01X7857090Y-2490535D01*
G03X7871300Y-2524840I48514J0D01*
G01X7904666Y-2558206D01*
G03X7901538Y-2572845I32686J-14639D01*
G01X7901538Y-2688765D01*
G03X7937352Y-2724579I35814J0D01*
G01X8099851Y-2724579D01*
G03X8135665Y-2688765I0J35814D01*
G01X8135665Y-2589849D01*
G01X8259018Y-2589849D01*
G01X8259018Y-2688765D01*
G03X8294832Y-2724579I35814J0D01*
G01X8457331Y-2724579D01*
G01X8459316Y-2724524D01*
G02X8400000Y-2764186I-59316J24524D01*
G01X100000Y-2764186D01*
G01X804186Y-300000D02*
G03X1195814Y-300000I195814J0D01*
G03X804186Y-300000I-195814J0D01*
G01X1571425Y-2572845D02*
G03X1535611Y-2537031I-35814J0D01*
G01X1373112Y-2537031D01*
G03X1337298Y-2572845I0J-35814D01*
G01X1337298Y-2688765D01*
G03X1373112Y-2724579I35814J0D01*
G01X1535611Y-2724579D01*
G03X1571425Y-2688765I0J35814D01*
G01X1571425Y-2572845D01*
G01X2884273Y-2572845D02*
G03X2848459Y-2537031I-35814J0D01*
G01X2685960Y-2537031D01*
G03X2650146Y-2572845I0J-35814D01*
G01X2650146Y-2688765D01*
G03X2685960Y-2724579I35814J0D01*
G01X2848459Y-2724579D01*
G03X2884273Y-2688765I0J35814D01*
G01X2884273Y-2572845D01*
G01X4197121Y-2572845D02*
G03X4161307Y-2537031I-35814J0D01*
G01X3998808Y-2537031D01*
G03X3962994Y-2572845I0J-35814D01*
G01X3962994Y-2688765D01*
G03X3998808Y-2724579I35814J0D01*
G01X4161307Y-2724579D01*
G03X4197121Y-2688765I0J35814D01*
G01X4197121Y-2572845D01*
G01X4383186Y-172374D02*
G03X4624814Y-172374I120814J0D01*
G03X4383186Y-172374I-120814J0D01*
G01X4637186Y-172374D02*
G03X4878814Y-172374I120814J0D01*
G03X4637186Y-172374I-120814J0D01*
G01X4891186Y-172374D02*
G03X5132814Y-172374I120814J0D01*
G03X4891186Y-172374I-120814J0D01*
G01X5145186Y-172374D02*
G03X5386814Y-172374I120814J0D01*
G03X5145186Y-172374I-120814J0D01*
G01X5509969Y-2572845D02*
G03X5474155Y-2537031I-35814J0D01*
G01X5311656Y-2537031D01*
G03X5275842Y-2572845I0J-35814D01*
G01X5275842Y-2688765D01*
G03X5311656Y-2724579I35814J0D01*
G01X5474155Y-2724579D01*
G03X5509969Y-2688765I0J35814D01*
G01X5509969Y-2572845D01*
G01X6822817Y-2572845D02*
G03X6787003Y-2537031I-35814J0D01*
G01X6624504Y-2537031D01*
G03X6588690Y-2572845I0J-35814D01*
G01X6588690Y-2688765D01*
G03X6624504Y-2724579I35814J0D01*
G01X6787003Y-2724579D01*
G03X6822817Y-2688765I0J35814D01*
G01X6822817Y-2572845D01*
G01X7304186Y-299999D02*
G03X7695814Y-299999I195814J0D01*
G03X7304186Y-299999I-195814J0D01*
G01X8457331Y-2517569D02*
G03X8464186Y-2516907I0J35814D01*
G01X8464186Y-2537693D01*
G03X8457331Y-2537031I-6855J-35152D01*
G01X8350908Y-2537031D01*
G01X8331447Y-2517569D01*
G01X8457331Y-2517569D01*
G54D11*
G01X5012000Y-172374D02*
G01X4901346Y-172374D01*
G01X5012000Y-172374D02*
G01X5122654Y-172374D01*
G01X5012000Y-172374D02*
G01X5012000Y-61720D01*
G01X5012000Y-172374D02*
G01X5012000Y-283028D01*
G01X141514Y-2630805D02*
G01X248417Y-2630805D01*
G01X141514Y-2630805D02*
G01X141514Y-2714419D01*
G01X141514Y-2630805D02*
G01X141514Y-2547191D01*
G01X498993Y-2423795D02*
G01X392090Y-2423795D01*
G01X498993Y-2423795D02*
G01X498993Y-2507409D01*
G01X498993Y-2423795D02*
G01X498993Y-2340181D01*
G01X1454362Y-2630805D02*
G01X1561265Y-2630805D01*
G01X1454362Y-2630805D02*
G01X1347458Y-2630805D01*
G01X1454362Y-2630805D02*
G01X1454362Y-2714419D01*
G01X1454362Y-2630805D02*
G01X1454362Y-2547191D01*
G01X1811841Y-2423795D02*
G01X1918745Y-2423795D01*
G01X1811841Y-2423795D02*
G01X1811841Y-2507409D01*
G01X1811841Y-2423795D02*
G01X1811841Y-2340181D01*
G01X2767210Y-2630805D02*
G01X2874113Y-2630805D01*
G01X2767210Y-2630805D02*
G01X2660306Y-2630805D01*
G01X2767210Y-2630805D02*
G01X2767210Y-2714419D01*
G01X2767210Y-2630805D02*
G01X2767210Y-2547191D01*
G01X3124689Y-2423795D02*
G01X3231593Y-2423795D01*
G01X3124689Y-2423795D02*
G01X3124689Y-2507409D01*
G01X3124689Y-2423795D02*
G01X3124689Y-2340181D01*
G01X4080058Y-2630805D02*
G01X4186961Y-2630805D01*
G01X4080058Y-2630805D02*
G01X3973154Y-2630805D01*
G01X4080058Y-2630805D02*
G01X4080058Y-2714419D01*
G01X4080058Y-2630805D02*
G01X4080058Y-2547191D01*
G01X4437537Y-2423795D02*
G01X4544441Y-2423795D01*
G01X4437537Y-2423795D02*
G01X4437537Y-2507409D01*
G01X4437537Y-2423795D02*
G01X4437537Y-2340181D01*
G01X5392905Y-2630805D02*
G01X5499809Y-2630805D01*
G01X5392905Y-2630805D02*
G01X5286002Y-2630805D01*
G01X5392905Y-2630805D02*
G01X5392905Y-2714419D01*
G01X5392905Y-2630805D02*
G01X5392905Y-2547191D01*
G01X5750385Y-2423795D02*
G01X5857289Y-2423795D01*
G01X5750385Y-2423795D02*
G01X5643481Y-2423795D01*
G01X5750385Y-2423795D02*
G01X5750385Y-2507409D01*
G01X5750385Y-2423795D02*
G01X5750385Y-2340181D01*
G01X6705753Y-2630805D02*
G01X6812657Y-2630805D01*
G01X6705753Y-2630805D02*
G01X6598850Y-2630805D01*
G01X6705753Y-2630805D02*
G01X6705753Y-2714419D01*
G01X6705753Y-2630805D02*
G01X6705753Y-2547191D01*
G01X7063233Y-2423795D02*
G01X6956329Y-2423795D01*
G01X7063233Y-2423795D02*
G01X7063233Y-2507409D01*
G01X7063233Y-2423795D02*
G01X7063233Y-2340181D01*
G01X8018601Y-2630805D02*
G01X8125505Y-2630805D01*
G01X8018601Y-2630805D02*
G01X7911698Y-2630805D01*
G01X8018601Y-2630805D02*
G01X8018601Y-2714419D01*
G01X8376081Y-2423795D02*
G01X8269178Y-2423795D01*
G01X8376081Y-2423795D02*
G01X8376081Y-2507409D01*
G01X8376081Y-2423795D02*
G01X8376081Y-2340181D01*
G04 Copper End*

G04 Pad Start*
G54D12*
G01X3234000Y-172374D03*
G54D13*
G01X3488000Y-172374D03*
G01X3742000Y-172374D03*
G01X3996000Y-172374D03*
G01X4250000Y-172374D03*
G01X4504000Y-172374D03*
G01X4758000Y-172374D03*
G01X5012000Y-172374D03*
G01X5266000Y-172374D03*
G54D14*
G01X498993Y-2423795D03*
G01X498993Y-2630805D03*
G01X141514Y-2630805D03*
G01X141514Y-2423795D03*
G01X1811841Y-2423795D03*
G01X1811841Y-2630805D03*
G01X1454362Y-2630805D03*
G01X1454362Y-2423795D03*
G01X3124689Y-2423795D03*
G01X3124689Y-2630805D03*
G01X2767210Y-2630805D03*
G01X2767210Y-2423795D03*
G01X4437537Y-2423795D03*
G01X4437537Y-2630805D03*
G01X4080058Y-2630805D03*
G01X4080058Y-2423795D03*
G01X5750385Y-2423795D03*
G01X5750385Y-2630805D03*
G01X5392905Y-2630805D03*
G01X5392905Y-2423795D03*
G01X7063233Y-2423795D03*
G01X7063233Y-2630805D03*
G01X6705753Y-2630805D03*
G01X6705753Y-2423795D03*
G01X8376081Y-2423795D03*
G01X8376081Y-2630805D03*
G01X8018601Y-2630805D03*
G01X8018601Y-2423795D03*
G04 Pad End*

G04 Via Start*
G54D16*
G01X357739Y-1133198D03*
G01X1670587Y-1133198D03*
G01X2771684Y-1158598D03*
G01X4347081Y-1158598D03*
G01X4194682Y-1158598D03*
G01X4194682Y-1437997D03*
G01X5846278Y-1133198D03*
G01X6921976Y-1133198D03*
G01X8234824Y-1133198D03*
G01X5150010Y-1372897D03*
G01X2940214Y-1347497D03*
G01X3534013Y-1195098D03*
G01X5718408Y-1169698D03*
G01X4575411Y-1068098D03*
G01X1809796Y-1163650D03*
G01X5058610Y-814098D03*
G01X1350217Y-1296697D03*
G01X4616611Y-1601497D03*
G01X4464211Y-1449097D03*
G01X5572949Y-1161338D03*
G01X5776148Y-1008938D03*
G01X3635613Y-1550697D03*
G01X4804010Y-1703097D03*
G01X3803812Y-1626897D03*
G01X3905412Y-2287295D03*
G01X4219812Y-1804696D03*
G01X3991212Y-2033296D03*
G01X4563011Y-1245898D03*
G01X1870616Y-1957096D03*
G01X3660413Y-1830096D03*
G01X3990612Y-2287295D03*
G01X3584813Y-1017298D03*
G01X7005986Y-1182398D03*
G01X5201410Y-356899D03*
G01X5404609Y-204500D03*
G01X6115808Y-153700D03*
G01X5522699Y-2024386D03*
G01X8145604Y-2605415D03*
G01X8247204Y-2478415D03*
G01X4386741Y-1991996D03*
G01X3867012Y-1398297D03*
G01X3994012Y-1398297D03*
G01X3994012Y-984088D03*
G01X7816705Y-1314287D03*
G01X4194682Y-313839D03*
G01X5770078Y-415439D03*
G01X4707201Y-527969D03*
G01X5240600Y-538307D03*
G01X2432585Y-684329D03*
G01X4616981Y-735129D03*
G01X6769576Y-288439D03*
G01X1473017Y-610899D03*
G01X4648011Y-661699D03*
G01X4510231Y-545719D03*
G01X4281632Y-545719D03*
G01X3025414Y-839498D03*
G01X2720615Y-763298D03*
G01X7142626Y-593239D03*
G01X4203972Y-610899D03*
G04 Via End*

G04 Track Start*
G54D11*
G01X357739Y-1133198D02*
G01X141510Y-1349427D01*
G01X141510Y-2423795D01*
G01X1670587Y-1133198D02*
G01X1454357Y-1349427D01*
G01X1454357Y-2423795D01*
G01X2771684Y-1158598D02*
G01X2771684Y-2419325D01*
G01X2767214Y-2423795D01*
G01X4347081Y-1158598D02*
G01X4194682Y-1158598D01*
G01X4194682Y-1437997D02*
G01X4296281Y-1539597D01*
G01X4296281Y-1818996D01*
G01X4080062Y-2035216D01*
G01X4080062Y-2423795D01*
G01X5846278Y-1133198D02*
G01X5392909Y-1586567D01*
G01X5392909Y-2423795D01*
G01X6921976Y-1133198D02*
G01X6705757Y-1349417D01*
G01X6705757Y-2423795D01*
G01X8234824Y-1133198D02*
G01X8018604Y-1349417D01*
G01X8018604Y-2423795D01*
G01X5150010Y-1372897D02*
G01X5124610Y-1347497D01*
G01X4870610Y-1347497D01*
G01X4845210Y-1322097D01*
G01X2965614Y-1322097D01*
G01X2940214Y-1347497D01*
G01X3118014Y-1322097D02*
G01X3118014Y-2236496D01*
G01X2991014Y-2363495D01*
G01X2991014Y-2490495D01*
G01X3124694Y-2624175D01*
G01X3124694Y-2630815D01*
G01X3534013Y-1195098D02*
G01X3559413Y-1220498D01*
G01X4499211Y-1220498D01*
G01X4550011Y-1169698D01*
G01X4753210Y-1169698D01*
G01X4880210Y-1296697D01*
G01X5591409Y-1296697D01*
G01X5718408Y-1169698D01*
G01X5820008Y-1068098D01*
G01X5870808Y-1068098D01*
G01X5921608Y-1118898D01*
G01X5921608Y-2439695D01*
G01X5750388Y-2610915D01*
G01X5750388Y-2630815D01*
G01X4575411Y-1068098D02*
G01X4550011Y-1093498D01*
G01X2899014Y-1093498D01*
G01X2822814Y-1017298D01*
G01X2746615Y-1017298D01*
G01X2467215Y-1296697D01*
G01X1908416Y-1296697D01*
G01X1684837Y-1520277D01*
G01X1684837Y-2510875D01*
G01X1804776Y-2630815D01*
G01X1811836Y-2630815D01*
G01X5058610Y-814098D02*
G01X5033210Y-839498D01*
G01X3661613Y-839498D01*
G01X3534613Y-966498D01*
G01X1731216Y-966498D01*
G01X1401017Y-1296697D01*
G01X1350217Y-1296697D01*
G01X613619Y-2033296D01*
G01X613619Y-2513633D01*
G01X498989Y-2630815D01*
G01X4616611Y-1601497D02*
G01X4464211Y-1449097D01*
G01X4616611Y-1601497D02*
G01X4311811Y-1906296D01*
G01X4311811Y-2490495D01*
G01X4438811Y-2617495D01*
G01X4437541Y-2630815D01*
G01X5572949Y-1161338D02*
G01X5725349Y-1008938D01*
G01X5776148Y-1008938D01*
G01X3635613Y-1550697D02*
G01X3991212Y-1550697D01*
G01X4169012Y-1372897D01*
G01X4473811Y-1372897D01*
G01X4804010Y-1703097D01*
G01X3803812Y-1626897D02*
G01X3676813Y-1753896D01*
G01X3626013Y-1753896D01*
G01X3575213Y-1804696D01*
G01X3575213Y-1906296D01*
G01X3905412Y-2236496D01*
G01X3905412Y-2287295D01*
G01X4219812Y-1804696D02*
G01X3991212Y-2033296D01*
G01X4563011Y-1245898D02*
G01X4537611Y-1271297D01*
G01X2988214Y-1271297D01*
G01X2810414Y-1093498D01*
G01X2734215Y-1093498D01*
G01X1870616Y-1957096D01*
G01X3660413Y-1830096D02*
G01X3990612Y-2160296D01*
G01X3990612Y-2287295D01*
G01X3584813Y-1017298D02*
G01X3610213Y-1042698D01*
G01X4499211Y-1042698D01*
G01X4600811Y-941098D01*
G01X6828186Y-941098D01*
G01X7183786Y-2510265D02*
G01X7063236Y-2630815D01*
G01X5201410Y-356899D02*
G01X5016880Y-172370D01*
G01X5012000Y-172370D01*
G01X5404609Y-204500D02*
G01X5455409Y-153700D01*
G01X6115808Y-153700D01*
G01X5522699Y-2024386D02*
G01X5751298Y-2252985D01*
G01X5751298Y-2405385D01*
G01X5750388Y-2423795D01*
G01X5547189Y-2626995D01*
G01X5394789Y-2626995D01*
G01X5392909Y-2630815D01*
G01X5547189Y-2626995D02*
G01X5648789Y-2728595D01*
G01X5851988Y-2728595D01*
G01X5949768Y-2630815D01*
G01X6705757Y-2630815D01*
G01X6883556Y-2453015D02*
G01X6985156Y-2453015D01*
G01X7010556Y-2427615D01*
G01X7061356Y-2427615D01*
G01X7063236Y-2423795D01*
G01X6985156Y-2732415D02*
G01X7162956Y-2732415D01*
G01X7264555Y-2630815D01*
G01X8018604Y-2630815D01*
G01X8044004Y-2605415D01*
G01X8145604Y-2605415D01*
G01X8247204Y-2478415D02*
G01X8298003Y-2427615D01*
G01X8348803Y-2427615D01*
G01X8376083Y-2423795D01*
G01X5392909Y-2630815D02*
G01X5189710Y-2427615D01*
G01X4441361Y-2427615D01*
G01X4437541Y-2423795D01*
G01X4554711Y-2427615D02*
G01X4554711Y-2707015D01*
G01X4529311Y-2732415D01*
G01X4351511Y-2732415D01*
G01X4249912Y-2630815D01*
G01X4080062Y-2630815D01*
G01X4437541Y-2423795D02*
G01X4361341Y-2347595D01*
G01X4361341Y-2017396D01*
G01X4386741Y-1991996D01*
G01X4080062Y-2630815D02*
G01X3876862Y-2427615D01*
G01X3140264Y-2427615D01*
G01X3124694Y-2423795D01*
G01X3241864Y-2427615D02*
G01X3241864Y-2707015D01*
G01X3216464Y-2732415D01*
G01X3038664Y-2732415D01*
G01X2937064Y-2630815D01*
G01X2767214Y-2630815D01*
G01X2564015Y-2427615D01*
G01X1827416Y-2427615D01*
G01X1811836Y-2423795D01*
G01X1929016Y-2427615D02*
G01X1929016Y-2707015D01*
G01X1903616Y-2732415D01*
G01X1725817Y-2732415D01*
G01X1624217Y-2630815D01*
G01X1454357Y-2630815D01*
G01X1022558Y-2630815D01*
G01X920958Y-2732415D01*
G01X412959Y-2732415D01*
G01X387559Y-2707015D01*
G01X387559Y-2535225D01*
G01X498989Y-2423795D01*
G01X387559Y-2630815D02*
G01X141510Y-2630815D01*
G01X3867012Y-1398297D02*
G01X3994012Y-1398297D01*
G01X3994012Y-984088D02*
G01X4502011Y-984088D01*
G01X4603611Y-882488D01*
G01X6838806Y-882488D01*
G01X7905604Y-2490535D02*
G01X7956404Y-2541335D01*
G01X8286603Y-2541335D01*
G01X8376083Y-2630815D01*
G01X4194682Y-313839D02*
G01X4169282Y-313839D01*
G01X4027812Y-172370D01*
G01X3996002Y-172370D01*
G01X4093682Y-299369D02*
G01X3941282Y-299369D01*
G01X3814282Y-172370D01*
G01X3742003Y-172370D01*
G01X2432585Y-684329D02*
G01X4134382Y-684329D01*
G01X4185182Y-735129D01*
G01X4616981Y-735129D01*
G01X4077182Y-339239D02*
G01X3670783Y-339239D01*
G01X3503913Y-172370D01*
G01X3488003Y-172370D01*
G01X1473017Y-610899D02*
G01X4114612Y-610899D01*
G01X4190812Y-687099D01*
G01X4216212Y-687099D01*
G01X4241612Y-661699D01*
G01X4648011Y-661699D01*
G01X4510231Y-545719D02*
G01X4484831Y-571119D01*
G01X4307031Y-571119D01*
G01X4281632Y-545719D01*
G01X3025414Y-839498D02*
G01X2949214Y-763298D01*
G01X2720615Y-763298D01*
G01X7142626Y-593239D02*
G01X7124966Y-610899D01*
G01X4686571Y-610899D01*
G01X4661171Y-585499D01*
G01X4635771Y-585499D01*
G01X4610371Y-610899D01*
G01X4203972Y-610899D01*
G01X3975372Y-382299D01*
G01X3518173Y-382299D01*
G01X3314973Y-179100D01*
G01X3238774Y-179100D01*
G01X3234004Y-172370D01*
G01X5201410Y-356899D02*
G01X5332701Y-356899D01*
G01X5404609Y-284991D01*
G01X5404609Y-204500D01*
G01X6769576Y-288439D02*
G01X6086961Y-288439D01*
G01X5883761Y-491639D01*
G01X5769939Y-415299D02*
G01X4209612Y-415299D01*
G01X4093682Y-299369D01*
G01X5883761Y-491639D02*
G01X5673239Y-491639D01*
G01X4707201Y-527969D02*
G01X5230262Y-527969D01*
G01X5240600Y-538307D01*
G01X5673239Y-491639D02*
G01X5647839Y-466239D01*
G01X4204182Y-466239D01*
G01X4077182Y-339239D01*
G01X6828186Y-941098D02*
G01X7005986Y-1118898D01*
G01X7005986Y-1182398D01*
G01X7183786Y-1360197D01*
G01X7183786Y-2510265D01*
G01X6838806Y-882488D02*
G01X7270605Y-1314287D01*
G01X7816705Y-1314287D01*
G01X7905604Y-1403187D01*
G01X7905604Y-2490535D01*
G01X6794656Y-2541915D02*
G01X6985156Y-2732415D01*
G01X6705757Y-2630815D02*
G01X6794656Y-2541915D01*
G01X6883556Y-2453015D01*
G01X1908416Y-1296697D02*
G01X1908416Y-1209916D01*
G01X1862150Y-1163650D01*
G01X1809796Y-1163650D01*
G04 Track End*

M02*

